<?xml version="1.0" encoding="utf-8"?>
<!-- Generator: Adobe Illustrator 23.0.2, SVG Export Plug-In . SVG Version: 6.00 Build 0)  -->
<svg version="1.1" xmlns="http://www.w3.org/2000/svg" xmlns:xlink="http://www.w3.org/1999/xlink" x="0px" y="0px"
	 viewBox="0 0 740.4 299.8" style="enable-background:new 0 0 740.4 299.8;" xml:space="preserve">
<style type="text/css">
	.st0{fill:none;stroke:#6D6E71;stroke-width:1.1795;stroke-miterlimit:10;}
	.st1{fill:none;stroke:#6D6E71;}
	.st2{fill:none;stroke:#6D6E71;stroke-miterlimit:10;}
	.st3{fill:#C4BEB6;}
	.st4{fill:#222222;}
	.st5{fill:#00416B;}
	.st6{fill:#4B384C;}
	.st7{fill:none;stroke:#6D6E71;stroke-width:0.25;}
	.st8{fill:none;stroke:#6D6E71;stroke-width:0.25;stroke-dasharray:6.0166,3.0083;}
	.st9{fill:none;stroke:#6D6E71;stroke-width:0.25;stroke-dasharray:5.9748,2.9874;}
	.st10{fill:none;stroke:#6D6E71;stroke-width:0.25;stroke-dasharray:6.002,3.001;}
	.st11{fill:none;stroke:#6D6E71;stroke-width:0.25;stroke-dasharray:5.9622,2.9811;}
	.st12{fill:none;stroke:#6D6E71;stroke-width:0.25;stroke-dasharray:5.9756,2.9878;}
	.st13{fill:none;stroke:#6D6E71;stroke-width:0.4919;}
	.st14{fill:#6D6E71;}
	.st15{fill:none;stroke:#6D6E71;stroke-width:1.0009;stroke-miterlimit:10;}
	.st16{fill:#FED16D;}
	.st17{fill:#CDD8E6;}
	.st18{fill:none;stroke:#6D6E71;stroke-width:1.001;stroke-miterlimit:10;}
	.st19{clip-path:url(#SVGID_2_);}
	.st20{clip-path:url(#SVGID_4_);fill:#D1D3D4;}
	.st21{clip-path:url(#SVGID_4_);}
	.st22{clip-path:url(#SVGID_6_);}
	.st23{clip-path:url(#SVGID_10_);}
	.st24{clip-path:url(#SVGID_14_);}
	.st25{clip-path:url(#SVGID_18_);}
	.st26{clip-path:url(#SVGID_22_);}
	.st27{clip-path:url(#SVGID_26_);}
	.st28{clip-path:url(#SVGID_4_);fill:#324968;}
	.st29{clip-path:url(#SVGID_4_);fill:#E5B14C;}
	.st30{clip-path:url(#SVGID_4_);fill:#423A49;}
	.st31{clip-path:url(#SVGID_4_);fill:#212223;}
	.st32{clip-path:url(#SVGID_30_);}
	.st33{fill:none;}
	.st34{fill:#010101;}
	.st35{fill:#FFFFFF;}
	.st36{fill:#E6E7E8;}
</style>
<g id="Layer_1">
	<g>
		<polygon class="st35" points="561,181.6 560.8,181.8 561,181.8 		"/>
		<path class="st35" d="M630.1,86.4c-0.3,0-0.5,0.2-0.6,0.7c-0.2,0-0.2,0.1,0,0.2c0.1,0.2,0.3,0.3,0.4,0.3c0.8,0,2.2-0.2,4.2-0.4
			C632.3,86.4,630.9,86.1,630.1,86.4z"/>
		<path class="st35" d="M559.8,183.4l0.7,0.1l0.2-1.7C560.2,182.2,559.9,182.7,559.8,183.4z"/>
		<path class="st35" d="M642.4,84.7c-1.3,0-2.5,0-3.6,0c-1.1,0-2.2-0.2-3.3-0.7c-1.1-0.2-2.2-0.4-3.3-0.7c-1.1-0.3-2.2-0.4-3.4-0.2
			c-1.1-0.5-2.2-0.7-3.3-0.8c-1.1-0.1-2.3-0.1-3.6-0.1c-2.9-0.1-5.8-0.3-8.8-0.7c-2.9-0.4-6-0.6-9-0.7l-2.4-0.3
			c-1.6-0.1-3.2-0.2-4.7-0.4c-1.5-0.2-3.1-0.4-4.7-0.6c-2.1-0.1-4.1-0.3-6.1-0.5c-2-0.2-5.6-1.3-5.5-1.7c0.7-2.7,1.7-6.2,2.3-8.8
			c0.6-2.6,7.5-19.5,8-21.2c0.1-0.5,0.8-1.9,1.6-3.4c2.1-4.1-0.4-9.2-5-9.9c-1.7-0.3-2.9-0.3-3.2,0.1c-0.7,1.1-1,2.4-1.6,3.5
			c-1.9,3.3-3.6,6.9-5.1,10.7c-1.7,4.3-3.3,8.7-4.9,13.1c-1.6,4.4-1.7,4.1-3.5,8.5l-2.9,6.5c0,0-3-0.4-4.6-0.5
			c-2.4-0.2-2.9-0.4-5.1-0.8c-0.6-0.1-1.8-0.2-2.3-0.2c-0.6,0-1.2,0-1.8-0.1c-0.8-0.1-1.4,0.4-1.9,1.4c-0.6,2.3-0.3,4.9,1.2,6.5
			l0.8,0.5c0.4,0.2,0.8,0.4,1.2,0.5c1.4,0.2,2.6,0.4,3.9,0.6c1.4,0.3,5,0.9,5,0.9s-0.4,0.7-0.5,2.1c-0.2,0.3-0.4,0.8-0.5,1.6
			c-0.9,3-1.7,5.9-2.5,8.9c-0.8,3-1.6,5.9-2.5,8.9c-0.3,1.3-0.6,2.6-0.8,4c-0.2,1.4-0.5,2.8-1.1,4.2c-1.1,3.6-2,7.5-2.6,11.8
			l-0.6,4.5c-1.2,0.7-2.9,1.4-5,2c-3.1,0.9-5.3,1.7-6.6,2.4c0.3,0.1,0.8,0.2,1.5,0.1c0.7-0.1,1.3-0.1,1.7-0.1c0.3-0.6,1.2-1,2.6-1.3
			c1.5-0.3,2.3-0.6,2.6-1c0.1,0,0.3,0.1,0.6,0.4c0.1,0.3,0.3,0.4,0.6,0.2c0.3,0,0.4-0.1,0.4-0.4c0-0.4,0.2-0.6,0.6-0.4v0.8
			c-0.4,0.3-1.6,0.4-3.6,0.4c-1.4,1-2.9,1.8-4.6,2.5c-1.7,0.7-3.7,1.4-6.2,2.1c-2.4,0.7-4.2,1.3-5.3,1.7c0,0.1-0.1,0.2-0.2,0.2
			c-0.1,0-0.2-0.1-0.2-0.2h0.4c0.8-0.6,0.8-1.1,0-1.7c-0.1,0-0.3,0.2-0.5,0.5c-0.2,0.4-0.5,0.5-0.7,0.5c-0.1,0.3-0.1,0.5,0.2,0.5
			c0.3,0.1,0.4,0.2,0.4,0.5c-0.4,0.1-2.2,0.8-5.4,1.9c-3.2,1.1-5.8,1.8-7.7,2.1c-4.6,1.6-8.3,2.6-11.1,2.8c0.3-0.2,0.5-0.5,0.8-0.7
			c0,0,0,0,0,0c0,0,0,0,0,0c0.4-0.4,0.9-0.8,1.2-1.2c0.7-0.7,1.4-1.5,2.1-2.5c0.2-0.4,0.4-0.8,0.8-1.1c0.4-0.3,0.7-0.7,1-1.1
			c1.4-1.7,2.7-3.3,3.9-4.8c1.2-1.5,2.5-3.1,3.9-4.8c0.6-0.7,1.3-1.7,2.1-3c2-3,3.9-6.2,5.8-9.4c1.8-3.2,3.4-6.5,4.7-9.8l0.5-1.2
			c0.9-0.9,1.5-1.8,1.8-2.8c0.3-0.9,0.6-2,1-3.1c0.4-1.1,0.8-2.4,1.2-3.7c0.4-1.3,0.9-2.5,1.4-3.6c0.3-0.7,0.6-1.3,0.9-1.7
			c0.3-0.5,0.6-1,1-1.6c0.6-1.4,1-2.4,1.1-3c0.2-1.7,0.5-3.5,0.8-5.3c0.3-1.8,0.6-3.6,0.8-5.3c0.2-1.4-0.1-2.3-1-2.9
			c-1-0.8-1.7-1.3-2.1-1.7c-1.2-1-2.5-1.5-4-1.5c-1.2,0.3-2.3,0.2-3.2-0.2c-0.3-0.2-0.7-0.2-1.2-0.1c-0.4,0.1-0.8,0.2-1.2,0.3
			c-0.5,0.2-1,0.5-1.4,0.8c-0.2,0-0.4-0.1-0.6-0.1c-0.4,0.4-0.7,0.7-1.1,1.1c-0.1,0.1-0.2,0.1-0.3,0.2c-1,0.7-2.1,1.5-3.1,2.3
			c-1.1,0.8-2,1.8-2.9,2.8c-0.9,1-1.7,2.1-2.6,3.2c-2.5,3.2-4.7,6.5-6.8,10.1c-2,3.5-4,7.1-5.8,10.7c-0.6,1.1-1.1,2-1.6,2.9
			c-0.5,0.9-1,1.8-1.6,2.9c-0.8,1.5-1.5,3-2.2,4.4c-3.2,1.1-2.7,1.6-20.7,3.9c-3.1,0.4-6.1,0.4-9.2,0.2c-1.3,0-2.1-0.4-2.3-1.9
			c-0.6-2.3-2.1-4-3.6-5.7c-0.8-1-2.1-1.3-2.7,0.6c-0.4,1.9-1.3,3.8-1.9,5.7c-1.5,4.6-3.4,9.2-5.9,13.4c-3.1,5-6.9,9.4-11.5,13.4
			c-0.6,0.4-1.3,1-1.9,1.3c-0.8,0.2-1.5-0.2-1.3-0.8c0-1.3,0.2-2.5,0.6-3.6c1-4.8,3.1-9,5-13.4c1-2.1,2.3-4.2,3.6-6.1
			c1.7-2.7,3.6-5.4,5.2-8c0.6-1,0.8-2.1,1-3.1c0-1.3-0.8-1.9-1.5-2.3c-0.8-0.4-1.5,0-1.9,0.4c-0.6,0.4-1,0.8-1.5,1.3
			c-1.9,2.3-4,4.6-5.9,7.1c-3.4,4.8-6.5,9.8-8.8,15.3c-0.8,2.1-1.7,4-2.3,5.9c-1.3,4.4-0.6,8.4,2.5,11.7c1.3,1.5,2.9,2.5,4.8,2.7
			c3.4,0.4,5.9-1.5,8.6-2.9c0.2-0.2,0.2-0.2,0.2-0.4c0.8-1.7,2.3-2.7,3.6-4v0.2l0.6-0.6c0-0.2,0.2-0.4,0.4-0.6
			c1-1.3,2.5-2.1,3.1-3.8c0-0.2,0.2-0.4,0.4-0.6c1.5-1.5,2.3-3.1,3.4-5c1.3-2.7,2.5-5.4,3.6-8.4c0.2-0.6,0.6-1.3,0.8-1.9
			c0.2-0.4,0.6-0.6,1-0.4l1.3,0.6c2.3,1.5,4.8,2.1,7.7,2.1c4.4,0.2,9-0.4,13.4-1.3c4.1-0.7,6.2-1.3,8.2-2c-0.3,0.8-0.6,1.5-0.9,2.3
			c-0.7,1.7-1.4,3.5-2.2,5.3c-0.9,2.2-1.6,4.5-2.4,6.7c-0.4,1.2-0.8,2.5-1.2,3.7c-0.6,1.2-1.2,2.5-1.8,4c-0.2,0.1-0.4,0.2-0.5,0.3
			c-0.2,0.2-0.4,0.5-0.5,1c-0.1,0.3,0,0.7,0,1.2c-0.3,0.7-0.5,1.5-0.7,2.2c-0.1,0-0.3,0-0.4-0.1l0.3,0.3c0,0.2-0.1,0.3-0.1,0.4
			c0.3-0.3,0.4-0.2,0.4,0.2c-0.3,0-0.4-0.1-0.4-0.2c-1.5,4.5-7.7,6.2-18.4,5.2c-1.1,2-1.2,3.6-0.2,5c1.1,1.8,5,3.6,11.7,5.2
			c-0.4,1.7-1.3,4.8-2.7,9.4c-0.2,0.5-0.3,1-0.5,1.5c-0.2,0.8-0.5,1.5-0.7,2.2c-1.3-0.8-2.6-1.5-3.8-2.1c-1.6-0.7-3.7-1.2-6.5-1.4
			c-2.4-0.2-4.2-0.4-5.7-0.4l0.6,1.2l-2-0.1l0-0.1l0-0.3l0,0.4l-0.1,0l0-0.9l-0.6,0.5l-0.1-0.1l-0.1-0.2l0.8-0.4l0-0.2
			c-1.3-0.1-3-0.1-5-0.1c-0.3,0.6-1,1-1.9,1h-0.5l-0.3-0.3c-0.1-0.1-0.5-0.4-1.8-0.3c-0.6,0-1,0.2-1.1,0.4l-0.3,0.5l-0.6,0
			c-0.7,0-1.3,0.1-1.9,0.1l-4.2,0.3l0,0l-8,0.8v0l-1.3,0.2c-0.5,0.1-1,0.1-1.5,0.2l-4.4,0.7l0.2-0.3c-0.9,0.2-1.1,0.3-1.2,0.4
			l-1,0.7l-0.3-0.5c-0.1,0.1-0.3,0.2-0.5,0.2l-0.4,0.1l-0.4-0.1c-0.3-0.1-0.6-0.2-0.8-0.3l0,0.6l-0.9,0.2c-8.4,1.6-17,3.9-25.6,6.7
			l-4,1.4c-1.6,0.5-3.1,1.1-4.5,1.6l-1.9,0.7c-1.8,0.7-3.7,1.4-5.5,2.2l-2.5,1l0,0l-0.1,0l0,0l-3.3,1.4l0-0.9
			c-0.8,0.3-1.8,0.7-3,1.1c-1.9,0.7-3.5,1.5-4.5,2.3l-2.3,1.7l0.6-2.8c0.3-1.7,0.9-3.7,1.5-5.9c0.5-1.6,0.8-2.9,1.1-3.8
			c-0.2-0.2-0.3-0.6-0.3-0.9V184l0.3-0.3c0.5-0.6,1.3-2,2.3-5.3c0.8-2.7,1.6-4.6,2.3-5.8c0.2-1.8,0.9-4.3,2.2-7.6
			c1.2-3.3,2-5.9,2.4-7.7l0.2-0.9h0.6c0.1-0.2,0.3-0.4,0.5-0.5c0.1-1.2,0.5-2.8,1.3-4.6c0.9-2.3,1-3.5,0.9-4.2l0-0.3l0.2-0.3
			c0.8-1.6,1.9-4.4,3.4-8.4c1.4-3.9,2.6-6.8,3.7-8.5c-0.2-0.4-0.3-0.7-0.3-1.1v-0.4l0.3-0.3c0.5-0.6,1.4-2.2,2.7-6.3
			c1-3.3,2-5.6,3-7.1c-0.3-1.9,0.6-4.5,2.7-7.8c0.4-2,1.4-5,3.2-9.2c1.7-4.2,2.9-7.6,3.4-10l0.1-0.3c2.8-6.1,3-7.8,2.9-8.2l-0.2-1.3
			h1.3c-0.1-0.2-0.1-0.4-0.1-0.6v-0.3l0.1-0.2c0.2-0.4,0.7-1.5,1.6-4.2c0.7-2.1,1.5-3.6,2.4-4.6c0.1-2,1-4.6,2.6-7.9
			c1.6-3.2,2.4-6,2.4-8.4v-0.6l0.4-0.3c1.7-1.3,2.8-3.8,3.1-7.3l0-0.3l0.1-0.2c1.3-2.1,2.7-5.2,4.2-9.3c1.4-3.8,2.6-6.8,3.6-8.8
			c-0.1-0.3,0-0.7,0.1-1c0,0,0.1-0.2,0.2-0.5c0,0,0-0.1,0-0.2l-0.3-0.6l0.3-0.5c1.7-2.7,2.6-6,2.6-9.7c-0.5-0.6-1.3-1.4-2.4-2.3
			c-1.2-1-2.1-2-2.7-2.8c-0.9-0.1-1.8-0.6-2.6-1.4c-0.1-0.1-0.2-0.2-0.3-0.2c-1.5,7.8-2.9,12.7-4.2,15v2.2l-0.1,0.2
			c-7.1,18.5-11.7,31.5-13.9,38.6l-0.1,0.2l-0.1,0.1c-1.1,1.6-2.1,4.1-3,7.4c-0.9,3.5-1.9,6-3,7.6c-0.9,3.1-2.7,8.3-5.4,15.5
			c-2.8,7.3-4.7,13-5.7,17l-0.1,0.2c-3.5,8-8.1,20.2-13.6,36.1c-5.5,15.8-9.4,26.6-11.6,32.3c-0.4,2.8-1.4,6.8-3.1,12
			c-1.7,5.1-2.7,9.2-3,11.9l-0.1,0.7l-0.7,0.2c-1.1,0.3-2.2,0.8-3.2,1.3c-1,0.6-2.2,1.3-3.4,2.3c-1.3,1.1-2.3,1.8-3.1,2.2l-0.2,0.1
			c-5.9,1.8-9.2,4.3-9.8,7.4c0.8,2.2,2.1,4.6,3.9,7c3.6-0.3,7.4-2,11.2-5.2c4.3-3.6,7.1-5.6,8.6-6.3l3.5-2c1-0.7,7.1-3.9,18.5-9.9
			l0.2-0.1l0.2,0c0.6-0.1,1.7-0.5,3.8-1.7c1.7-1.1,3.3-1.6,4.8-1.6c0.5-0.5,1.1-0.8,1.9-1.2c0.7-0.3,1.3-0.6,1.6-1l0.2-0.2l0.3-0.1
			c26.8-8.6,48.7-13,65.1-13c7.9,0,13.7,0.8,17.7,2.5c-0.1,0.4-0.2,0.8-0.3,1.1c-0.1,0.3-0.2,0.7-0.3,1.1c-0.5,1.9-1.2,4.7-2.1,8.6
			c-1.2,4.7-1.8,8.1-1.9,9.9c-0.1,1.9-0.3,5.3-0.8,10.2c-0.5,4.9-0.4,8.3,0.3,10.3c0,0.1,0.1,0.2,0.4,0.2c0.4,0,0.6,0.3,0.4,0.8
			c-0.1,0-0.2-0.1-0.3-0.2c-0.1-0.1-0.2-0.2-0.3-0.2c0.3,3.8,1.1,7.2,2.5,10.3l0.6,1.5c0.4,0.8,0.7,1.4,0.8,1.7
			c0.1,0.3,0.4,0.8,0.8,1.7c0.4,0.8,0.8,1.4,1,1.8c0.3,0.3,0.7,0.8,1.2,1.5c0.5,0.6,0.9,1.2,1.4,1.6c0.4,0.4,0.9,0.8,1.6,1.2
			c0.6,0.3,1.2,0.7,1.8,0.9c1.8,1.3,3.8,1.8,5.9,1.8c2.1-0.1,3.9-0.4,5.6-1c1.6-0.6,3.5-1.8,5.6-3.5c2.1-1.7,3.6-3,4.6-4
			c1-1,2.2-2.3,3.8-4c0-0.7,0.2-1.3,0.7-1.8c0.5-0.5,0.9-0.7,1.2-0.7c0.8-2.1,2.6-5.4,5.2-9.9c2.7-4.5,4.5-8.2,5.4-11
			c0,0.4,0.1,0.7,0.2,0.8c0.6-3.4,1.3-5.7,2.3-6.9c0.1-0.3,0.1-0.5-0.2-0.5c-0.3-0.1-0.4-0.2-0.4-0.5c2.9-8.4,2.3-16.6-1.9-24.7
			c-4.2-8.1-10.3-13.7-18.2-16.8c0.3,0.6,0.2,0.8-0.2,0.8c-1.3-1.4-4.6-2.7-10.1-4c1-0.7,2.1-1.3,3.4-1.9c1.3-0.6,2.3-1,3.1-1.3
			c0.8-0.3,2.1-0.6,3.8-1c1.7-0.4,2.9-0.8,3.6-1c1-1,2.9-1.8,5.7-2.5c2.8-0.7,4.5-1.3,5.2-1.7c0.3-0.1,0.3-0.3,0.1-0.5
			c-0.2-0.2-0.2-0.3-0.1-0.3c0.3,0,0.5,0.1,0.6,0.2c0,0.4,0.2,0.6,0.6,0.4c1.5-0.6,4.2-1.4,8.1-2.6c3.8-1.2,7.2-2.3,10.1-3.5
			c2.9-1.1,5.3-2.4,7.4-3.8v1h0.4c0.3,0,0.3-0.1,0.2-0.4c0-0.6,0.1-0.8,0.4-0.8c0.1,0,0.2,0.3,0.2,0.8c2-1,3.1-1.7,3.4-2.3
			c0.3,0.3,0.5,0.4,0.6,0.4c0.4-0.7,1.4-1.3,3-1.8c0,0.2,0,0.3-0.1,0.4c-0.2,2.4-0.4,4.7-0.6,7c-0.1,1-0.2,1.9-0.2,2.9
			c0,1,0,1.9-0.2,2.9c-0.1,1-0.2,2-0.2,3c0,1.1,0,2.1,0.1,3c0.2,1.2,0.2,2.3,0.2,3.4c0,1.1,0.1,2.3,0.2,3.4c0.2,0.8,0.3,1.7,0.4,2.6
			c0,0.9,0.1,1.8,0.1,2.6c-0.1,1.8,0,3.4,0.3,4.9c0.3,1.5,0.6,2.9,1.1,4.3c0.3,1,0.6,2,0.9,2.9c0.3,0.9,0.5,1.8,0.7,2.6
			c0.6,1.4,1.2,2.8,1.8,4.3c0.6,1.5,1.2,2.9,1.8,4.3c1.4,2.6,3.1,4.8,5.2,6.7c2,1.8,4.6,2.8,7.9,2.9c0.3,0,0.6,0.1,0.9,0.2
			c0.3,0.1,0.6,0.2,0.9,0.2c0.2,0,0.3,0,0.4-0.1c0.1-0.1,0.3-0.1,0.6,0l0.5,0.1c0.5-0.4,0.8-0.7,0.8-0.9c0.2-0.5-0.1-0.7-0.9-0.8
			c-2.5-0.3-4.5-1.4-5.9-3.2c-2.8-3.1-4.5-6.6-5.1-10.4c-0.2-1.8-1-3.1-2.1-3.9l0.3-0.2l-0.2,0c-0.4,0.3-0.6,0.2-0.7-0.1l-0.2,0
			c-0.9-1.9-1.5-3.7-1.9-5.5c-0.4-1.8-0.6-3.8-0.6-6c0-0.2,0.1-0.2,0.2-0.2c0.1,0,0.1-0.1,0.2-0.2l0.5,0.1c0.9,0.8,1.6,1.3,2.2,1.5
			c0.6,0.4,0.9,0.2,1.1-0.6c-0.2-1.2-0.3-2.3-0.3-3.3c0-1.1,0-2.2,0-3.3c-0.2-1-0.2-1.9,0.1-2.7c0.5-2.2-0.1-3.8-0.2-6.3
			c0-1.1,0-2.2,0-3.3c0-1.1,0-2.1,0.2-3.3c0.2-2.7,0.5-5.5,0.9-8.3c0.4-2.8,0.8-5.5,1.1-8.2c0.4-1.6,0.6-3.2,0.8-4.8
			c0.1-1.6,0.6-2.7,0.9-4.5c0.3-1.2,3.3-10,3.6-10.9c5-17.2,11.1-28.2,11-27.4c0,0,6.8,0.5,9.3,0.8c2.5,0.3,5,0.3,7.6,0.2
			c1,0.1,1.7,0.1,2.2,0.1c1.1,0.2,2.2,0.1,3.2-0.3c1-0.2,1.7-0.3,2-0.2c1,0.1,1.9,0.2,2.8,0.3c0.9,0,1.8,0.1,2.8,0.3
			c1.1,0.2,1.9,0.2,2.4,0.1c1-0.2,2-0.2,3.1-0.2c1,0.1,2,0.2,3,0.3c1.5,0,2.9,0.1,4.2,0.1c1.4,0,2.8,0,4.3-0.1c0.2,0,0.3,0,0.4-0.1
			c0.1-0.1,0.2-0.1,0.4-0.1c0.2,0,0.2,0,0.3-0.2l0-0.2c-0.3-0.4-0.5-0.6-0.7-0.6c-1.2-0.5-2.4-0.8-3.6-1c-1.2-0.2-2.4-0.3-3.7-0.5
			c-1.3,0-2.6,0-4-0.1c-1.4,0-2.7-0.1-4-0.3c-1.1,0-2.2-0.1-3.3-0.2c-1-0.1-2.1-0.3-3.2-0.4c-0.8,0.1-1.6,0-2.4-0.1
			c-0.8-0.1-1.6-0.1-2.4-0.1c-0.3,0-0.6-0.1-0.7-0.2c-0.2-0.1-0.4-0.2-0.7-0.2l-0.2-0.3c-0.3-0.5-0.1-0.7,0.3-0.7
			c1.7-0.4,3.3-0.6,4.9-0.4c1.6,0.1,3.3,0.3,5,0.6c0.9,0.3,1.8,0.4,2.7,0.4c0.9,0,1.8-0.1,2.8-0.1c1,0,2,0.1,3,0.4
			c1,0.3,2,0.5,3,0.6c0.5,0.2,1.3,0.3,2.4,0.1c1.8-0.1,3.3,0.2,4.5,0.9c0.6,0.2,1.6,0.3,2.9,0.2c0.5-0.1,1.2-0.1,2.2,0.1
			c0.8,0.3,1.6,0.4,2.6,0.5c1,0.1,1.8,0.3,2.6,0.7c0.6,0.4,1.2,0.6,1.7,0.6c0.6,0,1.2,0,1.8,0.1c0.3,0,0.8,0,1.5-0.3
			c0.2,0,0.4-0.1,0.8-0.4l0.1-0.5C642.3,84.9,642.2,84.7,642.4,84.7z M444.6,145.6c-0.2,0-0.4,0-0.4,0h-1c0.2-0.6,0.8-1,1.3-1.3
			c0.2,0,0.4-0.2,0.8-0.2c0,0,0,0.2-0.2,0.4h1c-0.2,0.2-0.6,0.4-0.8,0.4L444.6,145.6z M446.3,148.3c-0.2,0-0.2,0-0.4,0.2
			c0-0.2,0.2-0.4,0.2-0.4c1.3-1.5,2.7-2.5,4.2-3.6C449.6,146.4,448.1,147.7,446.3,148.3z M536.4,86c-0.7,4-1.6,7.7-2.7,11.1
			c-1.8,6.8-4.7,13.9-8.7,21.5c-0.3,0.7-0.8,1.6-1.4,2.7c-0.6,1.1-1.3,2.2-2,3.2c-2.9,4.5-6,8.7-9.3,12.7c-3.2,3.9-6.9,7.3-11,10.3
			c-0.1,0-0.1,0-0.2,0c0,0.1,0,0.1,0,0.2c-0.1,0-0.1,0.1-0.2,0.2c-0.3,0.1-0.7,0.4-1.1,0.7c-1-0.1-2,0.2-2.9,0.8
			c-0.1-0.5-0.1-0.8,0-1.1c0.1-0.9,0.3-1.8,0.5-2.7c0.2-0.5,0.4-0.8,0.4-1c0,0-0.1,0-0.1,0.1c0.3-0.8,0.5-1.7,0.8-2.5
			c0.8-1.4,1.5-2.6,1.9-3.8c0.3-0.8,0.4-1.6,0.4-2.4c0.2-0.4,0.4-0.9,0.5-1.3c0.6,0.1,0.9-0.3,0.8-1c0-0.2-0.1-0.3-0.3-0.3
			c0-0.1,0.1-0.2,0.1-0.3c0.2-0.2,0.4-0.4,0.5-0.7c0.3-0.7,0.7-1,1.2-1c0.3-1.7,1.2-3.7,2.6-6.1c1.5-2.4,2.5-4.2,3-5.4
			c-0.6,0-0.8-0.1-0.8-0.2c1.8-1.8,3.8-5.3,5.9-10.5c1.8-2.4,4-5.9,6.6-10.5c2.6-4.6,5.1-8.7,7.6-12.3c2.2-3.1,4.7-5.7,7.4-7.7
			c0.2,0.3,0.3,0.6,0.4,1c0.3,0.9,0.4,1.9,0.4,3C536.7,83.9,536.6,84.9,536.4,86z M505.9,110.5C505.9,110.4,505.9,110.4,505.9,110.5
			C505.9,110.5,505.9,110.5,505.9,110.5C505.9,110.5,505.9,110.5,505.9,110.5z M504.7,108.1c1.1-2.1,2.2-4.2,3.5-6.5
			c1.2-2.4,2.6-4.8,4.1-7.1c1.5-2.3,3-4.6,4.4-6.9c0.4-0.6,0.9-1.2,1.3-1.6c0.2-0.2,0.4-0.4,0.7-0.7c-2.7,4.5-5.5,9.8-8.6,15.9
			c-2.3,4.7-4.2,8.4-5.7,11.1c-0.5,0-1,0-1.3,0.2c-0.2,0.1-0.5,0.1-0.7,0.2C503.1,111.1,503.9,109.6,504.7,108.1z M499.3,121.4
			c-0.7,1.3-1.4,2.8-2.2,4.4c-0.4,0.8-0.7,1.6-1,2.3c0.3-0.9,0.6-1.8,0.9-2.7c0.4-1.2,0.9-2.4,1.4-3.6
			C498.7,121.6,499,121.5,499.3,121.4z M482.8,170.3l0.6,0.6c0,0.1,0,0.2-0.1,0.2c-0.1,0-0.1,0.1-0.1,0.2h-0.4V170.3z M481.8,170.8
			c0.1,0,0.3,0.1,0.4,0.2c0,0.3,0.1,0.4,0.4,0.4c-0.1,0.3-0.3,0.3-0.6,0.1C481.7,171.3,481.6,171,481.8,170.8z M481.8,179.4
			c-0.1,0.1-0.2,0.3-0.2,0.4c-0.3-0.1-0.3-0.4,0-0.6c0.1-0.1,0.2-0.3,0.2-0.4C482.1,178.9,482.1,179.1,481.8,179.4z M481.4,174.7
			v0.2c0.1,0.1,0.2,0.3,0.2,0.4c-0.1,0-0.3,0-0.4-0.1c-0.1-0.1-0.3-0.1-0.4-0.1C480.7,174.9,480.9,174.7,481.4,174.7z M480.9,176
			v0.6l-0.2-0.2l-0.2-0.2C480.5,176.1,480.7,176,480.9,176z M479.3,180.4c0.4-0.8,0.5-1.5,0.2-1.9h0.4l0.2,1c0,0.1,0.2,0.1,0.6,0
			c-0.7,0.5-1.2,1-1.4,1.5c-0.1-0.1-0.2-0.2-0.3-0.3C479.1,180.7,479.2,180.6,479.3,180.4z M478,185.8c-0.1-0.2-0.1-0.5,0-0.8
			c0.1,0.1,0.2,0.2,0.3,0.2l0,0.2c0.1,0,0.1,0,0.2-0.1c0.4,0.3,0.7,0.7,1,1.1c0,0,0,0-0.1,0c-0.3,0-0.6-0.1-1-0.2l-0.6-0.2
			C477.6,185.9,477.7,185.8,478,185.8z M478.4,189.8v0.2c-0.4,0-0.6-0.3-0.6-0.8c0.1,0,0.2,0.1,0.3,0.3
			C478.2,189.7,478.3,189.8,478.4,189.8z M477,188.8c0.1-0.4,0.4-0.6,0.6-0.4c-0.3,0.3-0.3,0.6-0.2,0.8c0.1,0.3,0.1,0.6-0.2,0.8
			C476.9,190,476.8,189.6,477,188.8z M476.8,191.3v-0.2c0,0.1,0.1,0.3,0.4,0.4c0.3,0.1,0.4,0.3,0.4,0.6c-0.4,0-0.8-0.1-1-0.4
			L476.8,191.3z M475.5,198.6c-0.3,0-0.5-0.2-0.6-0.5c-0.1-0.4-0.3-0.5-0.4-0.5c0-0.1,0.1-0.2,0.4-0.3c0.3-0.1,0.4-0.2,0.4-0.5
			c0.1,0,0.2,0.1,0.2,0.4c0,0.3,0,0.5-0.1,0.7C475.3,198.1,475.4,198.3,475.5,198.6z M475.5,217.5v3.6c-0.4-0.7-0.6-1.7-0.6-3.1
			C474.9,216.6,475.1,216.5,475.5,217.5z M475.1,196.3c0-0.3,0.1-0.6,0.4-0.8C475.5,196,475.4,196.3,475.1,196.3z M475.1,185.8h0.2
			v1.3h-0.2V185.8z M475.1,194.6c-0.1,0.3-0.4,0.3-0.8,0.2C474.2,194.4,474.5,194.4,475.1,194.6z M473.2,210.1
			c0,0.1-0.1,0.2-0.4,0.2C472.8,210.2,472.9,210.1,473.2,210.1z M472.6,213.7c-0.3-0.1-0.3-0.4,0-0.8V213.7z M473.3,216.2
			c-0.2,0.4-0.3,0.8-0.3,1c-0.4-0.1-0.5-0.4-0.2-0.8c0.1-0.3,0.2-0.6,0.2-0.8C473.4,215.6,473.5,215.8,473.3,216.2z M473.8,206.9
			c-0.1,0.2-0.3,0.3-0.6,0.3c0-0.8,0.1-1.4,0.2-1.7c0.3,0.1,0.5,0.3,0.5,0.6C474,206.4,474,206.7,473.8,206.9z M474.2,203.2
			c-0.1,0.8-0.4,1.4-0.8,1.7c0.4-0.8,0.6-1.9,0.6-3.1C474.3,201.9,474.4,202.4,474.2,203.2z M474.3,204.7c-0.1-0.3,0-0.5,0.1-0.6
			c0.1,0,0.2,0.3,0.2,1C474.5,205.1,474.4,205,474.3,204.7z M475.3,226.8c-0.1-0.4-0.3-0.5-0.6-0.3v-0.4c0.4,0,0.6-0.2,0.6-0.6
			l0.2-0.2c0.1,0,0.2,0.1,0.2,0.4c0,0.3,0,0.6-0.1,0.8c-0.1,0.3,0,0.6,0.1,0.8C475.6,227.3,475.4,227.1,475.3,226.8z M492.3,240.7
			c-0.3,0-0.3-0.1-0.2-0.4c0.1,0,0.3,0,0.5,0.1c0.2,0.1,0.4,0.1,0.5,0.1C493.1,240.8,492.8,240.9,492.3,240.7z M512.3,220.4
			c-0.4,0.3-0.5,0.6-0.5,0.8c-0.3-0.4-0.4-0.7-0.4-0.8c0-0.1,0.1-0.4,0.3-0.7c0.2-0.4,0.3-0.6,0.3-0.7c0.1,0,0.2,0.1,0.2,0.2
			c0.1,0.3,0.3,0.3,0.6,0.2C512.8,219.8,512.6,220.1,512.3,220.4z M497.7,168.9c5,0.8,8.9,2.1,11.6,3.7c2.7,1.6,4.4,4.2,4.9,7.6
			c0.1,0.3,0.3,0.4,0.4,0.4c0.3,0,0.5,0.1,0.6,0.2c-0.3,0.6-0.2,1.4,0.1,2.5c0.3,1.1,0.4,1.8,0.1,2.1c0.3,0.3,0.5,0.8,0.5,1.7
			c0.1,0.8,0,1.4-0.3,1.7c0,0.1,0.1,0.2,0.3,0.1c0.2-0.1,0.4,0,0.5,0.3c-0.4,3.1-0.6,5.1-0.4,6.1c-0.7,0.6-1.1,1.8-1.2,3.9
			c-0.1,2-0.4,3.1-0.9,3.2c-1,3.8-2.6,7.7-4.8,11.9c1.1,0,2.2-1,3.1-3.1c1-2.1,2-3.3,2.9-3.6c-0.1-0.8,0.1-1.8,0.6-2.8
			c0.6-1,1.3-1.6,2.1-1.8c-0.1-1,0-2.7,0.5-5.1c0.5-2.4,0.5-4.3,0.1-5.6c0.4-0.4,0.6-1,0.5-1.9c-0.1-0.8,0-1.5,0.3-1.9
			c-0.3,0-0.4-0.6-0.4-1.9c0.3,0,0.4-0.1,0.4-0.2c-0.1,0-0.3-0.1-0.4-0.2c-0.1-0.3-0.4-0.4-0.6-0.4l0.4-0.4c0.2-0.1,0.3-0.2,0.3-0.4
			l0.4,1.4c0.1,0,0.2,0.3,0.2,1c0.3-0.1,0.5-0.1,0.7,0c0.2,0.1,0.4,0.2,0.5,0.2c0.1,0.4,0.2,0.9,0.1,1.4c-0.1,0.5-0.1,0.9-0.1,1.2
			c-0.3,0-0.5-0.2-0.5-0.7c-0.1-0.5,0-0.8,0.3-0.9c0-0.4-0.2-0.6-0.6-0.4c-0.4,0.1-0.6-0.1-0.4-0.6c-0.4,0-0.6,0.1-0.4,0.4
			c0.1,0.3,0.2,0.5,0.2,0.6c0.6,0,0.7,0.3,0.3,0.8c-0.4,0.6-0.4,0.9-0.1,1c0.1-0.1,0.2-0.4,0.2-0.6c0.1,0,0.3,0.2,0.4,0.6
			c0,0.4,0.1,0.4,0.4,0c1,1,1,2.2,0.2,3.6c0.6,3.8-0.2,8-2.3,12.8c-0.1-0.4,0-1.1,0.3-2c0.3-0.9,0.5-1.6,0.5-2
			c-0.3,0.1-0.5,0.5-0.5,1c-0.1,0.6-0.2,0.8-0.5,0.8c0.1,0.3,0.1,0.6,0,0.8c-0.1,0.3-0.3,0.6-0.4,0.8c-0.1,0.3-0.2,0.5-0.1,0.7
			c0.1,0.2,0.3,0.3,0.7,0.3c-1,0.3-1.5,0.8-1.5,1.5c0.1,0,0.4-0.4,0.8-1c0.6,0.3,0.8,0.7,0.6,1.3c-0.4,0.1-0.9,0.5-1.4,1
			c-0.5,0.6-0.9,1-1.4,1.3c-1.3,3.8-2.5,5.9-3.8,6.3c0.1,0.3,0.3,0.3,0.6,0.2l0.2,0.2c-0.1,0.1-0.4,0.2-0.7,0.2
			c-0.4,0-0.6,0.1-0.7,0.4c-0.1,0.1-0.3,0.4-0.4,0.8c-0.1,0.6-0.4,0.9-0.6,1v0.6c-2.4,0.6-3.1,1.6-2.3,3.1c0.3,0,0.4-0.2,0.4-0.6
			c0.8,0.1,1.4-0.2,1.7-1.2c0.3-0.9,0.6-1.4,0.8-1.4c-0.1,0.4-0.4,1-0.6,1.8c-0.3,0.8-0.5,1.4-0.7,1.9c-0.2,0.5-0.6,0.9-1.2,1.4
			l-0.2,0.2c0-0.1,0.1-0.2,0.2-0.2v-1.5c-0.3,0-0.4,0-0.4,0.1v0.3c0.3,0.4,0.2,0.6-0.2,0.4c0,0.6-0.3,1-0.8,1.3l-0.2-0.2v-0.2
			c-0.7,0-1.1,0.1-1.3,0.2c0,0.4,0.1,0.5,0.4,0.2c-0.3,0.3-0.4,0.6-0.2,0.8c-0.3-0.1-0.8,0-1.6,0.5c-0.8,0.5-1.1,1.1-0.9,1.8
			c-0.3-0.3-0.4-0.4-0.4-0.2c-0.4,1-0.7,1.5-0.8,1.5l-0.2,0.2c-0.1,0.3-0.4,0.5-0.7,0.6c-0.4,0.1-0.6,0.3-0.7,0.4
			c0,0.1,0.1,0.2,0.4,0.2c-0.1,0.1-0.4,0.2-0.6,0.2c-0.1-0.1-0.1-0.3,0-0.4h0.2c0-0.3,0.1-0.5,0.3-0.7c0.2-0.2,0.2-0.5,0.1-0.7
			c0.1,0,0.3,0.1,0.4,0.3c0.1,0.2,0.3,0.2,0.6,0.1c0-0.1,0.1-0.2,0.2-0.2c-0.3-0.8-0.4-1.3-0.4-1.5l0.6-0.6
			c-0.1-0.3-0.3-0.4-0.4-0.2c-0.4,0.1-0.7,0.2-0.8,0.2l0.4-0.4c-0.3-0.1-0.6,0.2-1,1l0.4,0.2c0,0.1-0.1,0.2-0.4,0.2
			c-0.1,0.6-0.5,1.1-1,1.6c-0.6,0.5-0.9,0.9-1,1.2c-0.1,0-0.2-0.1-0.2-0.4c-0.1,0.1-0.4,0.5-0.8,1.2c-0.4,0.6-0.7,1.2-0.8,1.6
			c-0.7-0.1-1.5,0.3-2.4,1.3c-0.9,1-1.7,1.5-2.4,1.7v1c-2.1,1.5-4.6,2.5-7.6,2.8c-3,0.3-5.1-0.7-6.2-3c0.3-0.4,0.3-1.3,0-2.5
			c-0.1,0-0.3,0.1-0.6,0.4v-0.8c0-0.6-0.3-0.8-0.8-0.8c0.4-0.3,0.5-0.7,0.1-1.2c-0.3-0.5-0.4-0.9-0.1-1.4c-0.3-0.6-0.6-1.3-0.8-2.1
			c0.4,0.3,0.7,0.3,0.8,0.2c0.6-0.7,0.6-1.4,0-2.1c-0.1,0-0.2,0.1-0.3,0.3c-0.1,0.2-0.2,0.3-0.3,0.3c-0.1-0.4,0-0.7,0.3-0.9
			c0.4-0.2,0.5-0.4,0.5-0.5c0-0.3-0.1-0.9-0.4-2c-0.3-1-0.2-1.6,0.2-1.8c-0.3,0-0.5,0.1-0.6,0.4c0,0.4-0.2,0.6-0.6,0.4
			c-0.7-1-0.7-2.1,0-3.4c0.4,0,0.6,0.4,0.5,1.2c-0.1,0.8,0,1.2,0.1,1.2c0.3-1.1,0.4-2.7,0.4-4.6c0-2,0.1-3.4,0.2-4.4
			c-0.4-0.1-0.7-0.1-0.9,0.1c-0.2,0.2-0.2,0.5-0.1,0.9c-0.1,0-0.2-0.6-0.2-1.9l0.2,0.2l0.4-1.3c-0.6,0.4-0.8,0.3-0.6-0.4
			c0-2,0.3-2.9,0.8-2.9c-0.3-0.8-0.2-2.1,0.1-3.7c0.4-1.6,0.5-2.5,0.5-2.6l0.4,0.2c-0.1,0.3-0.2,0.5-0.2,0.6c1-0.7,1.5-1.3,1.5-1.9
			l-1.3,0.4c0-2.1,0.4-3.6,1.3-4.4c0-0.3-0.1-0.4-0.4-0.4c0.6-2.8,0.9-4.3,1-4.4l0.2,0.2h0.4c0.1-0.3,0.1-0.5-0.2-0.5
			c-0.3-0.1-0.4-0.2-0.4-0.3c0.3-1.2,0.6-2.3,0.9-3.3c0.2-0.8,0.4-1.6,0.6-2.4c0.3,0.2,0.5,0.4,0.8,0.6c0,0.2-0.1,0.4-0.1,0.6
			c-0.1,0.8-0.3,1.5-0.5,2.1c-0.3,0.8-0.5,1.5-0.9,2v1.3h-0.2c0,0.1-0.3,1.3-1,3.4c-0.1,0-0.2,0.1-0.2,0.2c0,0.1,0.1,0.2,0.2,0.2
			c0.1,0.4,0.2,0.8,0.1,1.2c-0.1,0.3-0.1,0.7-0.1,0.9c0.9-2.5,1.7-5.4,2.5-8.7c0.2-0.9,0.4-1.8,0.6-2.7c0.1,0.1,0.2,0.3,0.4,0.4
			c0.1,0.2,0.3,0.3,0.4,0.4c-0.1-0.9-0.2-1.8-0.4-2.7c0.1-0.5,0.2-1.1,0.3-1.6c-0.2,0.2-0.3,0.5-0.5,1c-0.1-0.6-0.3-1.1-0.5-1.6
			c0.3-1.2,0.6-2.3,0.8-3.3c0.1-0.2,0.1-0.5,0.2-0.7c0.7,0,1-0.1,1-0.4c0-0.4-0.1-0.5-0.4-0.2c0-0.3,0.2-0.4,0.6-0.4
			c0-0.6-0.1-0.8-0.2-0.8c0-0.3,0.2-0.4,0.6-0.4l0.2-0.2c-0.3-1.3,0-3,0.8-5.1c0.8-2.2,1.3-3.6,1.5-4.3c0.3,0,0.5,0,0.5,0.1
			c0.1,0.1,0.2,0,0.3-0.1c0.1-0.4,0.1-0.7-0.1-0.8c-0.2-0.1-0.3-0.3-0.3-0.4l0.4-0.4c0.3,0.1,0.5,0.4,0.5,0.8
			c0.1,0.4-0.1,0.7-0.5,0.8c-0.8,2.5-1.5,4.7-2.1,6.5c0.8-0.8,1.5-2.2,2.1-4.2c0.6-2,0.9-3.1,1-3.6
			C489.5,167.4,492.7,168,497.7,168.9z M508.4,150.8c-0.8,0.2-1.5,0.2-1.9-0.1c1.8-1,2.9-1.3,3.4-1
			C509.7,150.2,509.2,150.6,508.4,150.8z M550.8,134.7c0.2-0.7,0.3-1.1,0.3-1.3c0,0,0.1,0,0.1,0c-0.2,0.8-0.3,1.7-0.4,2.6
			C550.6,135.8,550.6,135.3,550.8,134.7z M520.5,147.3c0,0.3,0.1,0.4,0.2,0.4c0,0.3-0.2,0.4-0.6,0.4h-0.6
			C519.6,147.9,520,147.6,520.5,147.3c-0.8-0.4-2.5-0.2-4.9,0.7c-2.4,0.9-4.1,1.2-4.9,0.9c1.8-0.8,5.3-1.9,10.5-3.1
			C521.3,146.5,521.1,147,520.5,147.3z M538.5,141.9c-0.1-0.1-0.2-0.4-0.2-0.8c0.3-0.1,0.4,0,0.4,0.4
			C538.6,141.4,538.5,141.6,538.5,141.9z M546.9,138.5c-3.5,1.4-6.5,2.2-9,2.3c-0.1,0.1-0.2,0.4-0.1,0.6c0.1,0.3-0.1,0.5-0.5,0.6
			c-0.3-0.3-0.6-0.3-1-0.1c-0.4,0.2-0.8,0.2-1.3-0.1c-1.1,1.1-1.7,1.7-1.9,1.7c0-0.6-0.3-0.8-0.8-0.8c-0.1,0.1-0.4,0.4-0.8,0.7
			c-0.4,0.4-0.7,0.5-0.9,0.5s-0.5-0.1-0.9-0.4c-0.3,0.4-0.6,0.8-0.9,1c-0.4,0.3-0.8,0.5-1.3,0.6c-0.5,0.1-0.9,0.2-1.4,0.2
			c-0.4,0-1,0-1.7,0.1c-0.7,0.1-1.3,0.2-1.9,0.3c-0.1,0-0.1,0.1,0,0.4c0.1,0.3,0.1,0.5-0.2,0.6c-0.1,0-0.2-0.1-0.2-0.4
			c0-0.3-0.1-0.4-0.2-0.4c2.5-1.7,5.8-2.7,9.8-2.9l0.6-1.3c0.1,0.3,0.6,0.3,1.3,0.1c0.7-0.2,1.2-0.2,1.5-0.1
			c2.2-1.4,6.2-2.8,11.9-4.2c0-0.6,0.5-0.9,1.5-1.2c1-0.2,1.5-0.7,1.5-1.4l0.9,0.9c0,0.3-0.1,0.7-0.1,1
			C549.6,137.5,548.3,138,546.9,138.5z M552.8,158.3c0.1-0.5,0.3-0.7,0.6-0.7c0.4-0.3,0.6,0,0.9,0.8c-0.5,0.4-0.7,0.6-0.6,0.7
			C552.9,159.4,552.7,159.1,552.8,158.3z M553.9,174c-0.6-1.2-0.8-2.4-0.5-3.5c0-0.2,0.2-0.2,0.5-0.2l0.2,0
			C554.4,171.6,554.3,172.8,553.9,174z M554.6,178.8l0.1-0.5c0.4-0.3,0.5-0.1,0.4,0.5l-0.1,1C555,179.5,554.9,179.1,554.6,178.8z
			 M555.7,181.6c-0.2,0.5-0.5,0.3-0.7-0.3l0.1-1c0.3,0.4,0.5,0.7,0.6,1.1L555.7,181.6z M557.7,168.3c0,0.3-0.3,0.4-0.8,0.4
			c0,0.3-0.3,0.2-0.7-0.3l-0.2-0.3c-0.2-1.2-0.3-2.3-0.3-3.3c0-1.1,0-2.1-0.1-3c0.1-0.6,0.3-1.3,0.5-2.1c0.4,0.9,0.6,1.6,0.8,2.3
			c0.1,0.7,0.3,1.3,0.6,1.8C558.1,165.1,558.1,166.7,557.7,168.3z M557.5,154.5c0,0.4,0,0.8,0,1.1c0,0.3-0.2,0.6-0.6,0.9
			c-0.2,0.1-0.3,0.1-0.3-0.2c0-0.2,0-0.5,0-0.9c0.1-0.5,0.2-0.9,0.3-1.3c0.1-0.4,0.4-0.9,0.8-1.5
			C557.6,153.5,557.5,154.1,557.5,154.5z M557.9,147.1c0,0.3-0.2,0.5-0.3,0.7c0,0.3-0.1,0.5-0.3,0.4c-0.5-0.1-0.7-0.2-0.7-0.3
			c-0.6-1.4-0.4-2.8,0.6-4.3l0.3-0.2l0.5,0.1C558.3,144.8,558.3,146,557.9,147.1z M558.4,138.4l0.1-0.7l0.2,0
			c0.1,0.2,0.2,0.4,0.1,0.7L558.4,138.4z M558.5,128.8c-0.1,0.3-0.3,0.4-0.8,0.4c-0.3-0.1-0.4-0.3-0.4-0.8l0.2-1.2
			c0.1-0.3,0.3-0.8,0.7-1.3l0.3-0.2c0.5,0.1,0.7,0.3,0.6,0.6C559.5,127.1,559.2,128,558.5,128.8z M571.9,88.3
			c-0.2,0.5-0.3,1-0.4,1.6c-0.2,1-0.4,1.9-0.7,2.7c-0.3,0.8-0.6,1.7-0.9,2.7c-0.5,0.9-0.9,1.8-1.2,2.7c-0.3,0.9-0.6,1.9-1,3
			c-0.4,1.7-0.9,3.4-1.5,5.1c-0.5,1.7-1.1,3.4-1.7,5.1c-0.7,1.3-1.2,2.8-1.5,4.4c-0.2,1-0.4,1.9-0.7,2.8c-0.3,0.9-0.7,1.8-1.1,2.5
			c-0.1,0.3-1.3,0.6-1.6,0.5c-0.2,0-0.2-0.1-0.2-0.2c0-0.1-0.1-0.1-0.2-0.2c-0.4-0.7-0.5-1.6-0.3-2.7c0.1-0.6,0.4-1.4,0.9-2.3
			c0.4-0.7,0.7-1.5,0.8-2.2c0.1-0.7,0.2-1.5,0.4-2.3c0.8-3.1,1.8-6,2.9-8.8c0.4-1.2,0.7-2.4,1-3.4c0.3-1,0.6-2.1,0.8-3.4
			c0.5-3,1.7-6.1,3.5-9.2c0.1-0.5,0.8-0.6,1.4-0.5C572.1,86.5,572.1,87.8,571.9,88.3z M595.2,82.6l-0.3,0.2c-0.2,0-0.3,0-0.5,0.1
			c-0.2,0.1-0.3,0.1-0.5,0.1l-9.1-1.2l-0.2-0.5c0.8-0.2,1.7-0.3,2.6-0.3c0.9,0,1.7,0,2.6,0c0.5-0.3,0.9-0.2,1.2,0.2
			c0.8,0.4,1.5,0.6,2.1,0.5c0.7-0.1,1.3,0.1,1.9,0.5C595.2,82.2,595.3,82.3,595.2,82.6z"/>
		<path class="st35" d="M560.5,176.4l-0.5,0.4c-0.5,1.2-0.1,1.9,1.2,2.1l0.5-0.4l0.1-0.5c-0.1-0.3-0.2-0.6-0.3-0.6
			c-0.1-0.1-0.2-0.3-0.3-0.6C560.9,176.4,560.7,176.3,560.5,176.4z"/>
		<path class="st35" d="M333.3,155.8c0.2-0.3,0.1-0.6,0-0.7c0,0,0-0.1-0.1-0.1c0.6-0.4,0.9-0.8,1-1.2l0.3-1.1l-1,0.5
			c-0.5,0.3-1.1,0.5-2,0.6c5.6-2.3,10.3-5,13.9-8.2l0.9-0.8h-0.7c0.2-0.1,0.4-0.2,0.6-0.3c0.9-0.5,1.6-0.9,2.2-1.4
			c0.9-0.7,0.9-1.3,0.8-1.8l-0.2-0.8l-0.6,0.6c0,0-0.2,0.2-0.9,0.5c-0.5,0.3-0.9,0.6-1.2,0.8c-3.9,1.6-8.3,3.8-12.9,6.4
			c-1.1,0.4-2.9,1.1-5.8,2.2c-2.8,1.1-5.1,1.9-6.9,2.5c-1.8,0.6-3.8,0.8-6.2,0.8c-2.2,0-4-0.5-5.5-1.5c1.2-5.4,2-7.7,2.6-8.7
			c0.7,0.4,1.5,0.7,2.4,0.7c0.3,0,0.5,0,0.8,0c0.7,0,1.4-0.1,2-0.2c0.8-0.2,1.7-0.4,2.8-0.8c1.1-0.3,1.9-0.6,2.5-0.7l0.1,0l0.1-0.1
			c0.7-0.6,2-1.6,3.8-2.9c1.9-1.4,3.4-2.8,4.6-4.1c1.2-1.3,2-2.7,2.7-4.2c0.7-0.4,1.2-0.8,1.6-1.4c0.4-0.6,0.6-1,0.8-1.4
			c0.1-0.4,0.2-1,0.3-1.9c0.1-0.8,0.1-1.5,0.2-1.9l0.1-0.3l-0.2-0.2c-1.7-1.7-2.6-3-2.8-4.1l-0.1-0.4H333c-0.1,0-0.5-0.1-1.1-0.5
			c-0.6-0.4-1.2-0.7-1.7-0.9l-0.1,0h-0.1c-4.2,0-5.3,0.3-5.8,0.6c-4.6,2.2-8.7,5.7-12.1,10.3c-0.4,0.6-0.9,1.3-1.4,2
			c-5.3,4.3-15.8,12.8-31,25.5c0-3.2,0.2-8,0.7-14.3c0.6-7,0.9-12,0.9-15v-0.1l0-0.1c-0.5-1.3-1.4-2.1-2.6-2.5
			c-0.4-0.1-0.8-0.2-1.2-0.2c-0.8,0-1.6,0.3-2.4,0.8l0,0l0,0c-11.1,10.8-19.8,18.2-25.8,22.1c0.3-0.7,0.6-1.6,1.1-2.7
			c0.8-1.9,1.4-3.5,1.8-5c0.4-1.5,0.7-3.1,0.9-4.8c0.2-1.8-0.2-3.3-1-4.6c-0.9-1.2-2.3-2.1-4.1-2.6l-0.5-0.1l-0.1,0.5
			c-0.1,0.5-0.3,1.3-0.7,2.3c-0.3,0.1-0.5,0.2-0.8,0.3c-0.5,0.2-1.1,0.4-1.6,0.7c-2.8,1.3-5.4,3.2-8,5c-0.5,0.3-0.9,0.7-1.4,1
			c-4.6,3.2-9,6.5-13.3,9.8c-1.7,1.2-3.3,2.6-4.9,3.8c-1.6,1.3-3.2,2.6-4.9,3.8c-1.8,1.3-3.6,2.6-5.3,3.8c-1.8,1.2-3.6,2.5-5.4,3.8
			c-1.7,1.2-3.6,2.1-5.5,2.9c-1.1,0.5-2.4,0.5-3.8,0.5c-1.1,0-2-0.5-2.8-1.5c-0.7-1-1.4-2.2-2.1-3.6c-1.7-4-2.5-7.9-3.5-12.6
			c-0.1-1.2,0.1-2.1,0.9-2.7l0,0l0,0c0.1-0.1,0.2-0.2,0.4-0.3c0.6-0.6,1.2-1.2,1.6-2.1l1-0.5l0,0l6-5.2c0.4-0.4,0.7-0.7,1-1.3
			l0.4-0.4c0.5-0.1,0.9-0.4,1.2-0.9c0.2-0.1,0.3-0.2,0.5-0.3c1.1-0.4,2.4-1.1,3.2-2.6c1.2-0.4,2.1-1.1,2.8-2.3l0.2-0.2
			c0.4-0.2,0.9-0.4,1.3-0.9c0.7-0.2,3.2-2.5,3.6-2.7c0.8-0.6,1.6-1.2,2.4-1.6c1.3-0.9,2.7-1.7,4-2.5c1.3-0.8,2.7-1.6,4-2.5
			c0.4-0.1,0.7-0.4,1-0.6c0.1-0.1,0.3-0.2,0.4-0.3l0.1-0.1l0.1-0.1c0.1-0.3,0.2-0.6,0-0.8c-0.1-0.2-0.3-0.5-0.8-0.7l0,0
			c0.3-0.9-1.1-2.2-1.5-2.6c-0.4-0.3-0.8-0.6-1.3-0.6c-0.2,0-0.4,0-0.5,0.1l-1.1,0.5c-2.5,1.4-4.9,2.7-7.4,3.9
			c-4.5,2.4-5.2,3.7-9.7,5.8c-1.7,0.8-6.4,4.9-8.1,5.7c-0.3,0.2-2.9,2-3.3,2.2c-0.4,0.1-2.2,1.7-2.6,1.9c0,0-0.5-0.4-0.5-0.4
			l-0.1-0.4c0.1-0.3,2.3-4.9,2.6-5.2h0.1l0.3-0.4l0.1-0.2l0.5-0.2l0.3-0.4l1.5-2.3c0.1-0.2,2.2-2.5,2.2-2.7c0-0.1,0.1-0.2,0.1-0.2
			l0.8-0.8l-1,0c0-0.1,2-1.7,2-1.7V118h-0.2c0.1-0.1,0.1-0.2,0.2-0.3l0.9-0.6l0.5-0.3h-0.6l0.6-0.6c0.2-0.2,0.3-0.4,0.3-0.6
			c0-0.1,0.1-0.2,0.1-0.4l0.3-0.7h-0.6c0.1-0.1,0.1-0.2,0.2-0.3h0.5v0.1l0.1-0.1l0.4-0.8l0.5-0.9c0-0.1,0.1-0.2,0.1-0.2
			c0.1-0.2,0.3-0.5,0.3-0.9V111h-0.2c0.2-1,0.8-1.8,1.5-2.7c0.1-0.1,0.1-0.2,0.2-0.3h0.4c0-0.1,0-0.2,0.1-0.4c0-0.1,0.1-0.2,0.2-0.3
			l0.1-0.3l0.1-0.1c0.2-0.2,0.2-0.4,0.3-0.5c0-0.1,0-0.1,0.1-0.2l0.8-0.8l-1,0c0.1-0.2,0.2-0.4,0.5-0.5l0.1-0.1l0-0.2l0.1-0.2
			c0.3-1.1,0.7-2.3,1.5-3l0.1-0.1l0-0.2c0.1-0.7,0.3-1.2,0.6-1.7v0.6l0.8-0.8c0.1-0.1,0.2-0.2,0.2-0.4v0.4l0.4-1.1l0.5-0.5l-0.3,0
			l0.3-0.7l0.4-0.9l0.3-0.7h-0.4c0.1-0.1,0.2-0.2,0.4-0.4l0.1-0.1l0-0.2c0-0.1,0-0.2,0.1-0.3c0-0.1,0.1-0.3,0.1-0.5
			c0.1-0.4,0.3-0.8,0.6-1h0.8v-0.5c0,0,0-0.1,0-0.2c0-0.1,0-0.1,0.1-0.2h0.2v-0.5c0-0.2-0.1-0.3-0.1-0.4c0.1-0.1,0.1-0.2,0.2-0.3
			h0.5l0.1-0.3c0.1-0.2,0.2-0.4,0.2-0.6c0-0.2,0.1-0.3,0.1-0.4l-0.1,0h0.1c0-0.2,0.1-0.4,0.2-0.5l0.1-0.1v-0.2l0.2-0.2l0.8-0.8h-0.9
			c0.2-0.5,0.5-1.1,0.8-1.5l-0.2-0.1h0.2c0-0.5,0.3-0.9,0.6-1.4c0.1-0.2,0.3-0.4,0.4-0.7c0.1-0.2,0.2-0.4,0.2-0.5c0,0,0-0.1,0-0.1
			h0.7v-0.5c0-0.1,0-0.2,0.1-0.3c0,0,0-0.1,0-0.1h0.9l-0.8-0.8c0,0,0,0,0-0.1c0.2-0.9,0.7-1.8,1.3-2.6c0.2-0.4,0.5-0.8,0.7-1.2
			c0.2,0,0.4-0.1,0.6-0.3l0.8-0.8h-0.9c0.1-0.1,0.2-0.2,0.3-0.3l0.2-0.1v-0.3c0-0.1,0-0.2,0.1-0.4c0-0.1,0.1-0.2,0.1-0.2l0.3-0.5
			l0,0l0,0c0.2-0.4,0.3-0.8,0.5-1.2c0.3-0.9,0.7-1.9,1.2-2.5l0,0l0,0c0.8-1.2,1.5-2.5,2.1-3.7c0.2-0.4,0.5-0.8,0.7-1.2
			c0.5-0.8,0.8-1.6,1.1-2.4c0.1-0.4-0.1-0.2-0.3,0.2c0,0,0-0.1,0-0.1c0-0.1,0.1-0.3,0.1-0.3c0.9-2.2,1.8-4,3-5.9l2.1-4l0.6-1.3
			c1.2-2.7,2.5-5.5,4-8.1c0.5-0.9,1.1-1.8,1.3-2.9c0.6-1.8,1.6-3.4,2.6-5c0.4-0.6,0.8-1.3,1.2-2c1-2.1,2.1-4.2,3.3-6.2
			c0.2-0.3,0.3-0.7,0.3-0.9c0.3-1.1-0.3-1.7-0.7-2c-0.3-0.2-0.6-0.3-0.9-0.3c-0.4,0-0.8,0.2-1.2,0.5c-1.1,1.1-2.1,2.3-3.2,3.5
			c-4.2,5.8-8.3,12.3-12.8,20.5c-2.4,4-2.7,4.6-4.9,8.7c-1.5,2.8-3.1,5.6-4.6,8.3c-1.1,2-2.2,4.1-3.3,6.1c-3,5.6-6.2,11.5-9.2,17.3
			l-7.4,14.1c-3,5.6-6.2,11.2-9.3,16.7c-0.5,0.9-1,1.9-1.5,2.8c-2.8,5.3-5.7,10.8-8.9,16l-10,17.4c-1.1,1.9-2.2,3.8-3.2,5.6
			c-1.5,2.7-3.1,5.6-4.8,8.3c-0.3,0.3-0.5,0.7-0.6,1c0,0.1-0.1,0.2-0.1,0.3l-0.1,0.1v0.1c0,0.7,0.6,1.7,1.1,2l0,0l0,0
			c0.1,0,0.3,0.1,0.4,0.1c0.2,0,0.3,0,0.4-0.1h0.8c-0.1,0.2-0.1,0.3-0.2,0.4l-0.1,0.1v0.1c0,0.6,0.3,1.1,0.9,1.4
			c0.2,0.2,0.5,0.3,0.7,0.3c0.3,0,0.6-0.1,0.8-0.3c0.1,0,0.2-0.1,0.3-0.1c0.2,0.4,0.6,0.7,1.1,0.7h0.1l0.1,0
			c0.4-0.1,1.3-0.5,1.8-1.2l1.2-1.5c0.6-0.9,1.2-1.8,1.8-2.7c0.9-1.4,1.9-2.9,2.9-4.3c1.2-1.9,2.5-3.8,4-5.5
			c0.3-0.3,0.5-0.6,0.8-0.9c0.7-0.8,1.4-1.8,2.2-2.5l0.1-0.1l0-0.1c0.1-0.2,0.1-0.3,0.2-0.4c0-0.1,0.1-0.1,0.1-0.2
			c1-0.7,1.9-1.6,2.7-2.5c0.3-0.4,0.7-0.7,1-1.1c0.1-0.1,0.2-0.2,0.3-0.2c0.3-0.3,0.7-0.7,1-1.1c0.3,0.5,0.6,1.1,0.8,1.8
			c0.5,2.1,1.3,4.3,2.5,6.4c1.4,3.1,3.5,5.9,6.2,8.5c2.5,2.3,5.4,3.4,8.7,3.4c2.5,0,4.6-1,6.4-2c2.7-1.2,4.9-3,7.3-4.9l0.9-0.7
			l8.3-7.2c0.2-0.1,0.3-0.3,0.4-0.4c0.4-0.3,0.7-0.7,1-1.2c0.8-0.3,1.3-0.8,1.6-1.3c0.1-0.1,0.3-0.3,0.4-0.5
			c0.4-0.2,0.9-0.4,1.2-0.8c1.1-0.3,1.5-0.9,1.7-1.4c0.6-0.2,1.2-0.5,1.5-1.2c1.8-0.4,2.8-1.7,3.8-2.8l0.2-0.3l0,0
			c0.9-0.2,1.3-0.8,1.5-1.3c0.4-0.2,0.9-0.4,1.2-0.8c0.5-0.1,1-0.4,1.3-0.9c1.2-0.5,2.1-1.1,2.8-2.2c0.5-0.1,0.9-0.5,1.2-0.9
			c1.5-0.4,2.6-1.2,3.5-2.6c0.3,0,0.7-0.3,1-0.5l0.4-0.4c0.3,0,0.5-0.1,0.8-0.2c-0.5,1.4-0.9,2.8-1.1,3.9c-0.5,2.1-0.8,4.3-1,6.6
			c-0.2,2.4,0.4,4.5,1.8,6.1c1.4,1.6,3.5,2.6,6.3,3l0.1,0l0.1-0.1c3.9-1.9,8.7-5.5,14.2-10.8c4.5-4.3,7.6-7.1,9.2-8.5
			c-0.3,3.6-0.8,12.2-1.6,25.5c-3.6,3.6-5.8,5.6-6.5,6.1l-0.1,0l0,0c-1.5,1.7-4.5,5.1-9.2,10.4c-2.7,3-5,5.6-6.9,7.7l-8.9-1
			c-4.9-0.7-9.9-1.2-14.7-1.7l-18.4-1.6c-3-0.2-6.1-0.4-9-0.6c-3-0.2-6-0.4-9-0.6c-5.3-0.2-10.3-0.2-15.6-0.2
			c-11.9,0-22,0.4-31.8,1.4c-0.2,0-0.5,0-0.7-0.1c-0.1,0-0.2,0-0.3-0.1c-0.3-0.6-0.2-1.3,0-2.1c0.3-2.2,0.7-4.7,0.9-7
			c0.3-6.9-0.8-13.6-3.5-20.8c-0.1-0.2-0.2-0.4-0.3-0.7c-0.1-0.3-0.3-0.6-0.4-1c-1.1-3.3-2.7-6.5-5-10.2c-3.4-5.6-7.5-10.9-13-16.8
			c-5.9-6.2-13-12.4-21.4-18.9L75.5,89.4c-2.6-1.9-5.2-4.2-7.7-6.4l-0.5-0.4c-2.9-2.5-5.1-5.1-6.9-8.1c-1.3-2.6-1.8-5.1-1.7-7.7
			c0-1.7,0.5-3.2,0.9-4.7c0.1-0.4,0.2-0.7,0.3-1.1c1-2.9,2.7-5.7,5-8.2c1.5-1.5,3.1-3.1,4.8-4.3c0.7-0.5,1.3-1,1.9-1.5
			c0.3-0.3,0.6-0.5,0.9-0.8c2.4-1.9,4.9-3.8,7.5-5.5c8.2-5.2,15.5-9.2,22.4-12.5c9.8-4.8,19.6-8.9,30.1-12.7
			c6.6-2.4,13.3-4.5,19.9-6.3c10.8-2.9,20.3-4.6,29-5.2c2.9-0.2,5-0.3,7-0.3c2.5,0,4.7,0.2,6.7,0.5c2,0.2,4.1,0.7,5.9,1.4
			c1.8,0.8,2.4,2.2,2,4.1c-0.1,0.3-0.1,0.6-0.2,0.9c0,0.3-0.1,0.5-0.2,0.8l-0.3,1l0.9-0.5c0.4-0.2,0.8-0.4,0.9-0.8
			c1.5-2.2,1.4-4-0.1-5.7c-1.4-1.6-3.2-2.7-5.5-3.4c-2.8-1.1-6.2-1.7-10.3-1.9C186.8,0,185.2,0,183.6,0c-6.6,0-13.4,0.6-20.1,1.7
			c-8.2,1.4-17.2,3.5-27.4,6.5c-8.3,2.6-17.9,5.9-27.4,10.1L92,26.1c-4.9,2.3-9.7,4.9-14.3,7.9l-5.9,3.7l0,0l0,0
			c-0.1,0.1-0.3,0.2-0.5,0.3c-0.3,0.2-0.6,0.4-0.9,0.7c-3.1,2.4-6.3,4.9-9.3,7.7c-2.8,2.4-5.1,5.4-6.9,8.8c-2.9,5.3-3.5,10.1-2,14.7
			c0.7,2.1,1.4,4.1,2.7,5.9c1.8,2.8,3.7,5.3,6,7.6c3.5,3.5,7.2,6.6,11.3,9.6L91,106.9c9,6.6,15.8,12.4,21.3,18.1
			c6.5,6.7,11.2,12.9,14.6,19.4c5.3,9.9,7,19.8,5.4,30.4c-0.4,3.1-1,5.8-1.7,8.3c-0.2,0.3-0.3,0.6-0.5,0.9c-0.1,0.2-0.3,0.5-0.4,0.8
			l-3.3,0.5c-0.9,0.1-1.7,0.2-2.5,0.3c-0.8,0.1-1.7,0.2-2.5,0.3l-14.6,2.4c-3.3,0.6-6.6,1.2-9.9,1.8c-6,1.1-12.2,2.2-18.2,3.4
			c-7,1.5-14.1,3.3-20.2,4.9c-10.3,2.4-20.6,5.6-30.6,9.4c-6,2.1-11.3,4.4-16.2,7c-2.6,1.2-5.2,3-8.2,5.5c-0.8,0.7-1.6,1.5-2.2,2.6
			c-1.7,2.7-2,5.1-0.7,7.4c0.9,1.6,2.2,3.1,3.8,4.3c3.3,2.4,6.9,4.1,10.7,5.1c6.3,2,13,2.5,19.4,2.8c1.4,0.1,2.9,0.1,4.3,0.1
			c8,0,16.6-0.8,25.6-2.3c7.5-1.4,14.8-3.5,22.4-6.3c11.5-4.2,21.2-9.4,29.7-15.9c4.6-3.4,8.9-6.9,11.7-11.8l0.1-0.1v-0.3
			c1.4-1.6,2.6-3.4,3.8-5.1v0.7l0.8-0.8l0.2-0.2l0.8-0.8h-0.2l0.2-0.2v-1.5l-0.2,0.2c0.7-1.2,1.4-2.3,2-3.5l0-0.1l0-0.1
			c0.1-0.4,0.3-0.7,0.5-1c0.1,0,0.2,0.1,0.2,0.1c0.4,0,0.6-0.4,0.7-0.5l0.5-0.7h-0.9c0.3-0.9,1-1.5,2.1-1.7c1.2-0.2,2.3-0.3,3.4-0.4
			c0.6,0,1.1-0.1,1.7-0.1c2.6-0.2,5.3-0.4,7.9-0.6c2.9-0.2,5.8-0.5,8.7-0.6l9.8-0.5c2.7,0,5.3-0.1,7.9-0.1c9,0,17.5,0.3,25.3,0.8
			l14.4,1c2.3,0.2,4.6,0.4,6.8,0.6c2.2,0.2,4.6,0.4,6.8,0.6l13.3,1.4c-2.1,2.5-4.7,5.8-7.7,9.8c-3.3,4.4-6.2,8.7-8.5,12.6
			c-5.7,7.2-11.5,17.6-17.2,30.9c-0.1,0.4-0.5,1.3-1.1,2.8c-0.7,1.6-1.1,2.6-1.3,3c-0.2,0.5-0.6,1.5-1.2,3c-0.6,1.5-1,2.5-1.2,3.2
			c-0.1,0.5-0.4,1.4-0.9,2.9c-0.4,1.3-0.7,2.5-0.9,3.4c-0.2,0.9-0.4,2-0.5,3.3c-0.2,1.3-0.3,2.5-0.3,3.5v3.5c0,1.3,0.1,2.6,0.4,3.8
			l0,0l0,0c1,3.4,2,6,2.7,8c0.8,2,2.1,4.1,3.8,6.3c1.7,2.2,3.7,3.7,5.9,4.6c0.1,0.3,0.2,0.6,0.3,1.1l0.1,0.3l0.3,0
			c0.9,0.1,2.3,0.6,4.1,1.4l0.1,0l0.1,0c0.4,0,0.7,0,1.1,0c3.7,0,7.1-0.5,10.1-1.6c3.3-1.2,6.3-3.1,8.9-5.6c2.6-2.5,4.7-4.9,6.3-7.1
			c1.6-2.2,3.4-5.1,5.4-8.6c4.4-7.1,7.5-14.3,9-21.3c5.3-13.6,9.7-33.4,13.2-58.7l9.7,1.6c2.8,0.5,5.5,1.1,8.1,1.8
			c1.2,0.3,2.4,0.6,3.6,0.8c3.4,0.8,6.9,1.7,9.4,3.7l0.2,0.2l0.1,0.1l0.1,0c0.4,0.2,0.8,0.3,1.2,0.3c0.4,0,0.8-0.1,1.1-0.4
			c0.4-0.4,0.5-0.8,0.5-1.3c0-0.4-0.3-0.9-0.7-1.3c-0.5-0.6-1.1-1-1.7-1.5c-0.2-0.1-0.3-0.2-0.5-0.3c-2.1-1.4-4.4-2.5-7.2-3.4
			c-1.1-0.3-2.2-0.6-3.4-0.9c-1.6-0.5-3.3-0.9-4.9-1.3c-5.2-1.2-10.2-2.2-15-3c0.3-2.4,0.6-4.5,0.8-6.6l0,0v0c0-1.8,0.1-4.3,0.3-7.7
			c0.2-3.3,0.3-6,0.4-7.9c3.4-3.3,9.5-8.7,18.2-16c2.5-2.1,4.9-4.2,7.2-6.1c-0.7,8.8,2.4,14,9,15.5l0.1,0h0.1
			c4.1,0,8.9-1.2,14.2-3.5l0.2-0.1l0.1-0.2c0.1-0.3,0.2-0.6,0.2-0.9c0.2,0.1,0.3,0.1,0.5,0.1c0.3,0,0.6-0.1,0.9-0.2
			c0.5-0.2,1.1-0.6,1.9-1.1c0.7-0.4,1.4-0.8,1.9-1l0.2-0.1L333.3,155.8z M323.3,127.6c-0.1-0.1-0.2-0.2-0.4-0.2
			c-0.2,0-0.4,0.1-0.6,0.2c-0.4,0.3-0.7,0.5-1,0.5c0.5-0.6,1.2-1.2,2-1.6c0.8-0.5,1.5-0.8,2.1-1.1c0.6-0.2,1.5-0.6,2.8-1.1
			c1.2-0.5,2.1-0.8,2.5-0.9c-1.6,6-5.8,11.4-16.2,12.2C316.8,132.8,319.7,130.1,323.3,127.6z M202.1,97.6L202.1,97.6L202.1,97.6
			C202.1,97.6,202.1,97.6,202.1,97.6z M194.1,113v0.2c0,0-0.1,0-0.1,0C194,113.2,194.1,113.1,194.1,113z M153.8,173.1
			C153.8,173.1,153.8,173.1,153.8,173.1C153.8,173.1,153.8,173.1,153.8,173.1L153.8,173.1z M208.8,160.5c-0.1,0.1-0.1,0.1-0.2,0.2
			C208.7,160.6,208.7,160.5,208.8,160.5L208.8,160.5z M208.9,160.4L208.9,160.4c0.4-0.4,0.8-0.7,1.3-1
			C210,159.8,209.6,160,208.9,160.4z M210.7,159c0.4-0.4,0.8-0.7,1.2-1C211.5,158.5,211.1,158.8,210.7,159z M67.4,44.2L67,44.7
			c-1.2,1-2.4,2.1-3.5,3.1L63.2,48C64.5,46.6,66,45.4,67.4,44.2z M121.3,205.6l-0.5,0.4c0.2-0.2,0.4-0.4,0.6-0.6
			C121.3,205.4,121.3,205.5,121.3,205.6z M121.6,205.1C121.6,205.1,121.6,205.1,121.6,205.1L121.6,205.1h0.2H121.6z M121.9,205.1
			h-0.1H121.9L121.9,205.1L121.9,205.1z M121.9,205.1L121.9,205.1h-0.1h-0.2c0,0,0,0,0,0L121.9,205.1L121.9,205.1z M126.4,199.7
			L126.4,199.7l-0.1,0.2c-0.3,0.8-0.9,1.6-1.7,2.5v-0.5l-0.8,0.8l-0.1,0.1v-0.2c0.9-1.2,1.8-2.3,2.6-3.4l-0.2,0.3l0.5,0
			C126.5,199.5,126.5,199.6,126.4,199.7z M126.7,193.2c-2.3,3.5-4.6,7.1-7.4,10.5c-5.4,6.1-11.7,10.8-18.6,15.2
			c-9.6,5.9-19.6,9.9-30.2,13.1c-6.7,1.9-13.3,3.1-20,4c-2.5,0.3-4.9,0.5-7.4,0.7c-1.8,0.2-3.3,0.3-5.1,0.3
			c-7.4,0-14.5-0.3-21.6-1.7c-2.5-0.5-4.7-1.2-6.5-2.8c-1.6-1.2-2.3-3-2.1-5c0-0.3,0.3-0.9,0.5-1.2c1.8-2.1,3.7-3.7,6-5.2
			c4.7-3,9.5-5,14.5-7.1c7.7-3,15.4-5.6,23.3-7.8c8.2-2.3,16.7-4.5,24.9-6.3c7.5-1.6,15.1-3.1,22.4-4.5c7.4-1.2,14.5-2.3,21.7-3.3
			l4-0.5c0.5,0,1.1,0.2,1.8,0.2C127.1,192.2,127.1,192.7,126.7,193.2z M127.9,203.4c0.3-0.3,0.5-0.7,0.8-1c0.6-0.8,1.2-1.6,1.7-2.4
			C129.7,201.1,128.8,202.3,127.9,203.4z M269.5,172.8c0-0.1,0.1-0.6,1.1-1.4c0.3-0.3,0.6-0.5,0.8-0.8c-0.1,0.5-0.5,1.1-1.4,1.9
			c-0.1,0.1-0.3,0.2-0.4,0.4V172.8z M267.4,171.6C267.4,171.6,267.5,171.6,267.4,171.6l0.2,0c0.2,0.1,0.3,0.2,0.5,0.2
			c-0.3,0.3-0.5,0.5-0.7,0.5V171.6z M269.2,173.3c-1,0.9-1.6,1.6-1.9,2.2c-0.2,0-0.6,0.2-0.7,0.8c-0.3,0.2-0.7,0.5-1.1,1
			c-0.5,0.6-0.7,0.8-0.8,0.8l-0.8,0.4C264.8,176.7,266.6,175,269.2,173.3z M263.7,179.3c0.1-0.2,0.2-0.4,0.2-0.7l0.8,0.4
			c0,0,0.1,0,0.1,0c0,0-0.1,0.1-0.1,0.1c0,0-0.1,0.1-0.1,0.1V179l-0.6,0.2C263.9,179.2,263.8,179.3,263.7,179.3L263.7,179.3z
			 M262.4,180.7c-0.1,0.2-0.1,0.3-0.1,0.5l-0.4,0.3c-1.7,1.4-3.9,3.7-6.4,7l-0.2,0c0,0-0.1,0-0.1,0
			C257.6,185.8,260,183.2,262.4,180.7z M251.1,193.2l0.3,0c-1,1.3-2.1,2.7-3.1,4.2c-0.3,0.3-0.5,0.6-0.6,0.8c0,0-0.1,0.1-0.1,0.1
			l-0.1-0.7l-0.7,1.4c-0.1,0.1-0.3,0.4-0.8,1.1c-0.5,0.6-0.8,1.1-1.1,1.4l-0.7,1c-1.4,1.4-3.2,3.8-5.6,7.3c-1.2,1.4-2.2,2.8-3,4.2
			c-0.6,0.7-1.2,1.5-1.9,2.4C239.3,208.2,245.1,200.4,251.1,193.2z M250.8,196.2c-0.1,0.1-0.1,0.1-0.2,0.2
			C250.6,196.4,250.7,196.3,250.8,196.2C250.8,196.2,250.8,196.2,250.8,196.2z M248,199.3c-0.1,0.1-0.1,0.1-0.2,0.2c0,0,0-0.1,0-0.1
			L248,199.3L248,199.3z M228.8,224.6c0,0,0,0.1-0.1,0.1l-0.2,0.3l0.1,0c0,0.1,0,0.1,0,0.2l-0.1,0
			C228.6,224.9,228.7,224.7,228.8,224.6z M227.4,226.9C227.4,226.9,227.4,226.9,227.4,226.9l-0.3,0.5c-0.2,0.4-0.5,0.8-0.7,1.2
			C226.7,228.1,227.1,227.5,227.4,226.9z M217.6,244.6c2.1-4.1,4.2-8,6.4-11.9c-0.5,1-1.1,2-1.6,3c-1.6,3-3.2,6.2-5.1,10
			c-0.1,0.2-0.2,0.4-0.3,0.5C217.3,245.7,217.5,245.1,217.6,244.6z M240.1,288.5c-0.1,0.1-0.2,0.2-0.3,0.3c0.2-0.5,0.6-0.9,1-1.1
			c0,0,0,0.1,0.1,0.1C240.6,287.9,240.4,288.2,240.1,288.5z M244.5,283.6c0.3-0.4,0.6-0.8,0.8-1.1c0.1,0,0.1,0,0.1,0
			c0,0,0.1,0,0.1,0C245.3,282.9,244.9,283.3,244.5,283.6z M248,278.4c0,0.1-0.1,0.4-0.5,1c-0.2,0.2-0.3,0.4-0.4,0.6
			c0,0-0.1-0.1-0.1-0.1c0.3-0.5,0.7-1.1,1-1.9C248,278.2,248,278.3,248,278.4z M249.6,275.6l-0.1-0.1h-0.1c0.5-0.8,0.9-1.5,1.4-2.1
			C250.3,274.2,249.9,274.9,249.6,275.6z M259.4,252.9c-0.1-0.1-0.2-0.2-0.4-0.2h0.5C259.4,252.8,259.4,252.9,259.4,252.9z
			 M268.9,202.7c-0.6,3.4-1.1,6.1-1.4,8.1c-0.4,2-0.9,4.8-1.8,8.5c-0.8,3.7-1.4,6.3-1.7,7.7c-0.3,1.4-0.9,4-1.8,7.9
			c-0.9,3.9-1.4,6.3-1.7,7.2c-0.2,0.7-0.6,1.8-1.2,3.3c-3,8.7-5.3,14.9-6.9,18.7c-1.6,3.8-4.4,8.4-8.3,14c-4,5.6-8.5,9.8-13.7,12.7
			c-2.4,1.2-4.9,1.9-7.6,1.9c-1.1,0-2.1-0.1-3.2-0.3c-3.8-0.7-6.6-2.4-8.3-5c-1.1-3.5-1.5-5.9-1.2-7.3c0.2,0,0.4,0.1,0.4,0.4
			c0.1,0.3,0.1,0.6,0,0.9c-0.1,0.3,0,0.5,0.1,0.6c0.2-0.3,0.4-1,0.4-2c0.1-1,0.3-1.5,0.6-1.7c0.2-4.4,0.9-8.8,2.1-13.2
			c1.2-4.4,2.3-7.9,3.3-10.4c1.1-2.6,2.7-6.2,4.9-10.9c2.2-4.7,3.7-8,4.6-10c1.2-1.7,2.9-4.4,5.1-8c2.2-3.6,4.3-6.8,6.3-9.6
			c2-2.8,4-5.3,6-7.5c0-0.3,0.1-0.7,0.2-1c0.1-0.3,0.2-0.6,0.2-0.8c4.3-5.1,8.2-9.7,11.6-13.7c2.6,0.3,5.3,0.6,7.9,1l6.2,1
			C269.7,197.5,269.3,200,268.9,202.7z M271.1,184.9c-0.2,2.3-0.4,4.4-0.6,6.3c-3.8-0.6-7.5-1.2-11.3-1.8c5.4-6.3,9.5-11,12.3-14
			c0.1,0,0.2,0.1,0.2,0.2C271.6,178.6,271.4,181.8,271.1,184.9z M271.3,168.2c-0.3,0-0.6,0.2-1,0.6c0,0,0-0.1,0-0.1
			c0.2-0.2,0.7-0.5,1.5-1.1C271.7,167.7,271.5,167.9,271.3,168.2z M285.8,155.7c-0.1,0.1-0.2,0.3-0.4,0.4c-0.1,0-0.2-0.1-0.2-0.1
			C285.4,156,285.6,155.9,285.8,155.7z M305.3,142.4c-3.9,3.1-6.6,5.7-8.1,7.7c-1.3,0.1-2.6,1.1-4.2,3.1c-0.7,0.9-1.3,1.5-1.9,2
			v-0.2h-1l-0.1,0.1l-0.2,0.2l-0.1,0.1v0.3c0,0-0.1,0-0.1,0l-0.4-0.1l-0.2,0.3c-1.2,2.4-2.8,3.9-4.6,4.5l-0.2,0l-0.1,0.1
			c-0.8,1.2-2.4,2.7-4.8,4.5c0-0.5,0-1,0.1-1.7c12.1-10.1,20.9-17.4,26.3-21.8C305.5,141.8,305.4,142.1,305.3,142.4z M322.8,156.3
			c-0.2-0.1-0.4-0.1-0.6-0.1c-0.3,0-0.5,0.1-0.8,0.2c0-0.1,0-0.2-0.1-0.2c0.4-0.1,0.9-0.1,1.6-0.2
			C322.9,156.1,322.8,156.2,322.8,156.3z"/>
		<polygon class="st35" points="458.6,174.4 458.6,174.4 458.6,174.3 		"/>
		<path class="st35" d="M504,225v-0.2c0.1-0.3,0.2-0.5,0.2-0.6H504C503.6,224.6,503.6,224.9,504,225z"/>
		<path class="st35" d="M505.2,226.9v-0.6C505,226.5,505,226.8,505.2,226.9z"/>
		<path class="st35" d="M504.4,226.5c0-0.3,0.1-0.5,0.4-0.5c0.3-0.1,0.4-0.2,0.4-0.3h-0.6C503.6,225.8,503.6,226.1,504.4,226.5z"/>
		<path class="st35" d="M503.6,226.1c0,0.3-0.2,0.5-0.6,0.6c0,0.1,0.1,0.3,0.4,0.6C503.8,226.5,503.8,226.1,503.6,226.1z"/>
		<path class="st35" d="M502.9,226.3c-0.3,0-0.4,0.1-0.4,0.2l0.4,0.2V226.3z"/>
		<path class="st35" d="M516.5,208.5v0.6c0.1-0.1,0.3-0.4,0.4-0.6C516.8,208.3,516.7,208.3,516.5,208.5z"/>
		<path class="st35" d="M534.8,136.4v0.8c0.8,0,1.3-0.1,1.3-0.4l-0.6-0.6C535.1,136.5,534.9,136.6,534.8,136.4z"/>
		<path class="st35" d="M510.7,219.8v-0.6h-0.4c0,0.4-0.1,0.5-0.4,0.2v0.6h0.6C510.5,219.7,510.5,219.6,510.7,219.8z"/>
		<path class="st35" d="M514.8,214c0.1-0.2,0.1-0.6,0.1-1.2c-0.1,0-0.4,0.4-0.8,1.3C514.5,214.3,514.7,214.2,514.8,214z"/>
		<path class="st35" d="M513.9,215.2c0.1-0.3,0-0.4-0.3-0.4v0.8C513.8,215.6,513.9,215.4,513.9,215.2z"/>
		<path class="st35" d="M517.4,204.9c-0.6,0-0.8,0.1-0.6,0.4C517.2,205.3,517.4,205.2,517.4,204.9z"/>
		<path class="st35" d="M509.4,146.1c0-0.1,0.1-0.3,0.2-0.4c0.1-0.1,0.2-0.3,0.2-0.4C509.1,145.5,509,145.8,509.4,146.1z"/>
		<rect x="519.5" y="199.7" class="st35" width="0.4" height="0.4"/>
		<path class="st35" d="M512.5,145.1c-0.2,0.2-0.2,0.5-0.1,0.7c0.4-0.1,0.7-0.5,0.8-1c0-0.1-0.1-0.2-0.4-0.2
			C512.8,144.7,512.7,144.9,512.5,145.1z"/>
		<path class="st35" d="M541.3,136.8c0.1-0.3,0.1-0.5,0-0.6c-0.6-0.6-1-0.5-1.3,0.2c0.3-0.1,0.5-0.1,0.7,0.1
			C540.9,136.7,541.1,136.8,541.3,136.8z"/>
		<path class="st35" d="M515.7,143.8c-0.6,0-0.8,0.2-0.8,0.6C515.2,144.4,515.4,144.2,515.7,143.8z"/>
		<path class="st35" d="M522.7,142.1c-0.1,0.4,0,0.6,0.3,0.6c1-1,1-1.5,0-1.5C522.9,141.4,522.8,141.7,522.7,142.1z"/>
		<rect x="533.3" y="137.3" class="st35" width="0.8" height="0.8"/>
		<path class="st35" d="M526.8,139.8c0.3,0.3,0.6,0.2,1-0.2C527.2,139.6,526.8,139.6,526.8,139.8z"/>
		<path class="st35" d="M518.2,143.1c0.6-0.3,0.8-0.5,0.8-0.6h-0.6c0,0.1-0.1,0.3-0.2,0.4V143.1z"/>
		<path class="st35" d="M517.7,144.6c0.3-0.1,0.5-0.3,0.3-0.6c-0.4-0.4-0.9-0.5-1.5-0.2c-0.6,0.4-0.6,0.8-0.2,1
			c0.1,0.1,0.4,0.2,0.8,0.2C517.2,144.9,517.4,144.7,517.7,144.6z"/>
		<path class="st35" d="M482.8,180.8h-0.2c0.2,0,0.3,0,0.4,0.1C483,180.9,482.9,180.8,482.8,180.8z"/>
		<path class="st35" d="M476.8,233.6c0.3-0.1,0.3-0.5,0.1-1c-0.2-0.6-0.2-1-0.1-1.3l-0.4,1.3v0.6
			C476.5,233.5,476.6,233.6,476.8,233.6z"/>
		<path class="st35" d="M505.9,225c0,0.1,0.3,0.2,0.8,0.2C506.6,224.7,506.3,224.6,505.9,225z"/>
		<path class="st35" d="M479.3,192.6h0.4v-0.8C479.4,192,479.3,192.3,479.3,192.6z"/>
		<path class="st35" d="M520.9,193.6v-2.3c-0.4,0-0.7,0.1-0.7,0.4c-0.1,0.3-0.1,0.6-0.2,1c-0.1,0.4-0.2,0.8-0.3,1
			C520.4,193.5,520.8,193.5,520.9,193.6z"/>
		<path class="st35" d="M484,178.6c-0.1,0.3-0.1,0.7-0.1,0.9c0.4-0.4,0.7-1.2,0.9-2.3c0.2-1.1,0.5-1.9,0.7-2.3c-0.6,0.1-1,1-1.3,2.7
			h-0.2c0,0.3-0.1,0.3-0.2,0.2C484,178,484.1,178.3,484,178.6z"/>
		<path class="st35" d="M507.3,224.9c-0.3,0.1-0.5,0.2-0.6,0.3c-0.1,0.6-0.1,1,0.2,1.3l0.4-0.4c0.1-0.4,0.3-0.6,0.6-0.4v-0.8
			C507.8,224.8,507.6,224.8,507.3,224.9z"/>
		<path class="st35" d="M537.5,137h0.8c0-0.7-0.1-1-0.4-1C537.9,136.4,537.8,136.8,537.5,137z"/>
		<path class="st35" d="M476.5,207.4c-0.1,0-0.2,0.1-0.2,0.2c0.4,0.4,0.5,1.5,0.1,3.1c-0.3,1.7-0.4,3-0.1,4c0-0.6,0.2-1.9,0.5-4
			c0.4-2.1,0.4-3.5,0.1-4.2C477.1,206.9,477,207.1,476.5,207.4z"/>
		<path class="st35" d="M520.7,194.1C520.7,194.1,520.7,194.2,520.7,194.1c0,0,0.1,0,0.2-0.1C520.8,194,520.7,194,520.7,194.1z"/>
		<path class="st35" d="M478.2,202.2v-1.9c0,0.1-0.1,0.3-0.2,0.6C477.7,201.6,477.8,202,478.2,202.2z"/>
		<path class="st35" d="M510.9,217.9c0,0.6,0.2,0.8,0.6,0.8C511.5,218.3,511.3,218,510.9,217.9z"/>
		<path class="st35" d="M477.6,203.9l-0.6,2.5c0.4,0.1,0.7-0.1,0.8-0.8C478.2,204.4,478.2,203.9,477.6,203.9z"/>
		<path class="st35" d="M518,204.1c0,0.1,0.1,0.3,0.4,0.6V203C518.2,203.3,518,203.7,518,204.1z"/>
		<path class="st35" d="M483.1,182.9c0.2-0.4,0.3-0.9,0.5-1.4c0.2-0.7,0.4-1.3,0.5-1.7c-0.6,0-0.8,0.4-0.8,1.3H483
			c0,0.3-0.1,0.6-0.3,1c0,0,0,0,0,0c-0.2,0.4-0.3,0.8-0.4,1.2c-0.1,0.4-0.1,0.9-0.1,1.5c0.3-0.4,0.5-0.9,0.7-1.5
			C483,183.2,483,183,483.1,182.9z"/>
		<path class="st35" d="M732.3,201.4c-1.7,0-3.2,0.5-4.4,1.4c-1.2,1-2.2,2.5-3,4.5l-1,2.5c-0.8,1.8-1.7,2.8-3,2.8
			c-0.9,0-1.6-0.3-2.2-1c-0.6-0.7-0.9-1.6-0.9-2.6c0-0.9,0.2-1.6,0.5-2.1c0.3-0.5,1-1.1,2-1.7l-1.8-3.1c-2.8,1.6-4.3,3.9-4.3,6.8
			c0,2.2,0.6,4,1.9,5.4c1.3,1.5,2.9,2.2,4.8,2.2c2.8,0,5-1.7,6.4-5.2l1-2.4c0.3-0.6,0.6-1.2,0.9-1.6c0.3-0.5,0.6-0.8,1-1.1
			c0.3-0.3,0.7-0.5,1.1-0.6c0.4-0.1,0.9-0.2,1.4-0.2c1.2,0,2.2,0.4,3,1.2c0.8,0.8,1.2,1.8,1.2,3c0,1.5-0.5,2.7-1.6,3.4
			c-0.6,0.4-1.6,0.7-3.1,0.9l0.9,3.9c2.4-0.4,4.2-1.2,5.5-2.6c1.3-1.4,2-3.2,2-5.4c0-2.3-0.8-4.3-2.3-5.8
			C736.6,202.2,734.7,201.4,732.3,201.4z"/>
		<path class="st35" d="M727.3,158.1c-3.6,0-6.7,1.3-9.3,3.9c-2.6,2.6-3.9,5.7-3.9,9.3c0,3.7,1.3,6.8,3.8,9.4
			c2.6,2.6,5.6,3.9,9.2,3.9c4.1,0,7.3-1.4,9.8-4.3c2.3-2.6,3.4-5.5,3.4-8.8c0-3.7-1.3-6.9-3.8-9.5
			C734.1,159.4,731,158.1,727.3,158.1z M734.1,177.9c-1.8,1.9-4.1,2.8-6.9,2.8c-2.7,0-4.9-0.9-6.7-2.7c-1.8-1.8-2.8-4-2.8-6.7
			c0-2.6,0.9-4.9,2.8-6.7c1.8-1.8,4.1-2.7,6.8-2.7c2.7,0,4.9,0.9,6.8,2.7c1.8,1.8,2.8,4.1,2.8,6.7
			C736.8,173.9,735.9,176.1,734.1,177.9z"/>
		<path class="st35" d="M737.5,137.4c1.9-1.9,2.9-4.2,2.9-6.9c0-2.7-1-5-2.9-6.9c-1.7-1.7-3.9-2.5-6.6-2.5h-16.3v3.8h15.3
			c2.2,0,3.8,0.4,4.8,1.1c1.5,1.1,2.2,2.6,2.2,4.5c0,1.9-0.7,3.4-2.2,4.5c-1,0.7-2.6,1.1-4.8,1.1h-15.3v3.8h16.3
			C733.6,139.9,735.8,139.1,737.5,137.4z"/>
		<polygon class="st35" points="718.2,98.5 740,98.5 740,94.6 718.2,94.6 718.2,88.8 714.6,88.8 714.6,104.3 718.2,104.3 		"/>
		<polygon class="st35" points="740,68.2 728.1,68.2 728.1,57.2 740,57.2 740,53.4 714.6,53.4 714.6,57.2 724.5,57.2 724.5,68.2 
			714.6,68.2 714.6,72 740,72 		"/>
		<rect x="671.8" y="9.9" class="st35" width="0.9" height="258.8"/>
		<path class="st35" d="M614.8,129.8L614.8,129.8c-1.3-1.4-1.8-2.6-4.5-2.9c-0.6-0.1-1.2,0.2-1.9,0.2c-0.4,0.1-0.8,0.1-1.2,0.2
			c0,0,0,0,0,0c-0.1,0-0.1,0.1-0.2,0.1c-1.8,0.5-3.6,1.7-5.2,3.3l0,0.2c-2.3,2-4.3,4.6-6,7.6c-2.8,5.1-4.1,10.7-3.9,16.7
			c0.2,6,2.1,11.3,5.7,15.8c-10.9,2.5-18.4,6.1-22.5,10.7c-0.9,3.7-1,7.3-0.2,10.7c1.4,2,3.4,3.3,5.9,4.2
			c11.7-1.4,20.5-6.2,26.3-14.6v-3.5c-2.8-5.8-5.9-11.3-9.4-16.6c-0.1-0.1-0.1-0.5,0.2-1c-1.5-0.8-2.1-2.8-1.7-5.9
			c0-1,0.2-2.2,0.6-3.4c0.4-1.2,0.8-2.2,1.2-2.9c0.4-0.8,1-1.8,1.9-3c0.9-1.3,1.5-2.1,1.9-2.6c0.4-0.5,1.2-1.4,2.3-2.7
			c1.2-1.3,1.8-2.1,1.9-2.3c0.6,0,1.2-1.2,2-2.1c1.1-0.3,2.1-0.2,3.1,0.1c1.7,0.7,3.2,5.2,3.1,8.4c0,1.5,1.9,2.2,3.1,2.6
			c0.5,0.1,0.9-0.4,0.9-1c-0.1-2.1-0.3-6.4-0.5-8.4C617.5,134.5,616.4,131.5,614.8,129.8z M598,171.9c0.5,0.3,0.9,0.8,1.4,1.3
			c0.5,0.5,0.9,1.1,1.4,1.8c0.5,0.7,0.8,1.2,1,1.6c-1.7,3.5-4.7,6.2-9,8.1c-4.3,2-9,2.9-14,2.9c0.8-1.7,0.9-2.9,0.3-3.5
			c0.3,0.2,0.8,0.1,1.2-0.3c0.5-0.5,0.8-0.7,0.9-0.7c1.5-3.2,5.5-6,12.1-8.3c0.2-0.1,0.4-0.3,0.5-0.7v-0.3
			C596.1,173.2,597.4,172.6,598,171.9z"/>
	</g>
</g>
<g id="Layer_2">
</g>
</svg>
