<?xml version="1.0" encoding="utf-8"?>
<!-- Generator: Adobe Illustrator 23.0.2, SVG Export Plug-In . SVG Version: 6.00 Build 0)  -->
<svg version="1.1" id="Layer_1" xmlns="http://www.w3.org/2000/svg" xmlns:xlink="http://www.w3.org/1999/xlink" x="0px" y="0px"
	 viewBox="0 0 336.3 26" style="enable-background:new 0 0 336.3 26;" xml:space="preserve">
<style type="text/css">
	.st0{fill:#EAEFF4;}
	.st1{fill:#C4BEB6;}
	.st2{fill:#222222;}
	.st3{fill:#00416B;}
	.st4{fill:#4B384C;}
	.st5{fill:#FFFFFF;}
	.st6{fill:#FED16D;}
	.st7{fill:#CDD8E6;}
	.st8{fill:none;stroke:#58595B;stroke-miterlimit:10;}
	.st9{fill:#E8E8EA;}
	.st10{fill:#D3D4D6;}
	.st11{fill:#C9CACB;}
	.st12{fill:#DADBDD;}
	.st13{fill:#D1D2D2;}
	.st14{fill:#D4D6D7;}
	.st15{fill:#C6C7C8;}
	.st16{fill:#E1E2E3;}
	.st17{fill:#BABBBE;}
	.st18{fill:#B7B8BA;}
	.st19{clip-path:url(#SVGID_8_);}
	.st20{clip-path:url(#SVGID_10_);}
	.st21{clip-path:url(#SVGID_12_);}
	.st22{clip-path:url(#SVGID_14_);}
	.st23{clip-path:url(#SVGID_18_);}
	.st24{clip-path:url(#SVGID_20_);}
	.st25{clip-path:url(#SVGID_22_);}
	.st26{clip-path:url(#SVGID_24_);}
	.st27{clip-path:url(#SVGID_28_);}
	.st28{clip-path:url(#SVGID_32_);}
	.st29{clip-path:url(#SVGID_34_);}
	.st30{clip-path:url(#SVGID_36_);}
	.st31{clip-path:url(#SVGID_38_);}
	.st32{clip-path:url(#SVGID_42_);}
	.st33{fill:none;stroke:#58595B;stroke-width:2;stroke-miterlimit:10;}
</style>
<g>
	<path class="st5" d="M11.6,4.8L9.3,6.2C8.9,5.4,8.4,4.9,8.1,4.7C7.6,4.4,7.1,4.3,6.5,4.3C5.7,4.3,5,4.5,4.5,5C4,5.4,3.7,6,3.7,6.6
		c0,0.9,0.7,1.7,2.1,2.2l1.9,0.8c1.5,0.6,2.6,1.4,3.4,2.3c0.7,0.9,1.1,2,1.1,3.3c0,1.7-0.6,3.2-1.7,4.3c-1.2,1.1-2.6,1.7-4.3,1.7
		c-1.6,0-3-0.5-4.1-1.5c-1.1-1-1.7-2.3-2-4.1L2.9,15c0.1,1.1,0.4,1.9,0.7,2.3c0.6,0.8,1.4,1.2,2.6,1.2c0.9,0,1.6-0.3,2.2-0.9
		c0.6-0.6,0.9-1.3,0.9-2.3c0-0.4-0.1-0.7-0.2-1C9,14,8.8,13.8,8.6,13.5c-0.2-0.3-0.5-0.5-0.8-0.7c-0.3-0.2-0.7-0.4-1.2-0.6l-1.8-0.8
		c-2.6-1.1-3.9-2.7-3.9-4.8c0-1.4,0.5-2.6,1.6-3.6c1.1-1,2.4-1.4,4-1.4C8.7,1.6,10.4,2.7,11.6,4.8z"/>
	<path class="st5" d="M23.4,9.5L30.7,2h3.8L26,10.5l8.6,10.3h-3.8l-6.8-8.4L23.4,13v7.8h-2.8V2h2.8V9.5z"/>
	<path class="st5" d="M45.9,12.7L39.7,2H43l4.3,7.5L51.6,2h3.3l-6.2,10.7v8.1h-2.8V12.7z"/>
	<path class="st5" d="M72.5,4.7h-7.6v4.5h7.3v2.7h-7.3v6.3h7.6v2.7H62.1V2h10.4V4.7z"/>
	<path class="st5" d="M96.8,2v16.2h5.5v2.7h-8.4V2H96.8z"/>
	<path class="st5" d="M109.1,11.3c0-2.7,1-4.9,2.9-6.8c1.9-1.9,4.3-2.9,7-2.9c2.7,0,5,1,6.9,2.9c1.9,1.9,2.9,4.2,2.9,6.9
		c0,2.7-1,5-2.9,6.9c-1.9,1.9-4.3,2.8-7,2.8c-2.4,0-4.6-0.8-6.6-2.5C110.1,16.8,109.1,14.3,109.1,11.3z M111.9,11.4
		c0,2.1,0.7,3.8,2.1,5.1c1.4,1.3,3,2,4.8,2c2,0,3.6-0.7,5-2.1c1.4-1.4,2-3.1,2-5.1c0-2-0.7-3.7-2-5.1c-1.3-1.4-3-2.1-5-2.1
		c-2,0-3.6,0.7-5,2.1C112.6,7.7,111.9,9.4,111.9,11.4z"/>
	<path class="st5" d="M146.8,4.7h-6.6v4.5h6.3v2.7h-6.3v9h-2.8V2h9.4V4.7z"/>
	<path class="st5" d="M160.3,4.7v16.2h-2.8V4.7h-4.3V2h11.5v2.7H160.3z"/>
	<path class="st5" d="M182.8,4.8l-2.3,1.4c-0.4-0.7-0.8-1.2-1.2-1.5c-0.4-0.3-0.9-0.4-1.6-0.4c-0.8,0-1.4,0.2-2,0.7
		c-0.5,0.4-0.8,1-0.8,1.7c0,0.9,0.7,1.7,2.1,2.2l1.9,0.8c1.5,0.6,2.6,1.4,3.4,2.3c0.7,0.9,1.1,2,1.1,3.3c0,1.7-0.6,3.2-1.7,4.3
		c-1.2,1.1-2.6,1.7-4.3,1.7c-1.6,0-3-0.5-4.1-1.5c-1-1-1.7-2.3-2-4.1l2.9-0.6c0.1,1.1,0.4,1.9,0.7,2.3c0.6,0.8,1.4,1.2,2.6,1.2
		c0.9,0,1.6-0.3,2.2-0.9c0.6-0.6,0.9-1.3,0.9-2.3c0-0.4-0.1-0.7-0.2-1c-0.1-0.3-0.3-0.6-0.5-0.8c-0.2-0.3-0.5-0.5-0.8-0.7
		c-0.3-0.2-0.7-0.4-1.2-0.6l-1.8-0.8c-2.6-1.1-3.9-2.7-3.9-4.8c0-1.4,0.5-2.6,1.6-3.6c1.1-1,2.4-1.4,4-1.4
		C179.9,1.6,181.6,2.7,182.8,4.8z"/>
	<path class="st5" d="M212.8,0l2.3,1l-10.8,25l-2.2-1L212.8,0z"/>
	<path class="st6" d="M245.7,4.8l-2.3,1.4c-0.4-0.7-0.8-1.2-1.2-1.5c-0.4-0.3-0.9-0.4-1.6-0.4c-0.8,0-1.4,0.2-2,0.7
		c-0.5,0.4-0.8,1-0.8,1.7c0,0.9,0.7,1.7,2.1,2.2l1.9,0.8c1.5,0.6,2.6,1.4,3.4,2.3c0.7,0.9,1.1,2,1.1,3.3c0,1.7-0.6,3.2-1.7,4.3
		c-1.2,1.1-2.6,1.7-4.3,1.7c-1.6,0-3-0.5-4.1-1.5c-1.1-1-1.7-2.3-2-4.1L237,15c0.1,1.1,0.4,1.9,0.7,2.3c0.6,0.8,1.4,1.2,2.6,1.2
		c0.9,0,1.6-0.3,2.2-0.9c0.6-0.6,0.9-1.3,0.9-2.3c0-0.4-0.1-0.7-0.2-1c-0.1-0.3-0.3-0.6-0.5-0.8c-0.2-0.3-0.5-0.5-0.8-0.7
		c-0.3-0.2-0.7-0.4-1.2-0.6l-1.8-0.8c-2.6-1.1-3.9-2.7-3.9-4.8c0-1.4,0.5-2.6,1.6-3.6c1.1-1,2.4-1.4,4-1.4
		C242.8,1.6,244.5,2.7,245.7,4.8z"/>
	<path class="st6" d="M253.7,11.3c0-2.7,1-4.9,2.9-6.8c1.9-1.9,4.3-2.9,7-2.9c2.7,0,5,1,6.9,2.9c1.9,1.9,2.9,4.2,2.9,6.9
		c0,2.7-1,5-2.9,6.9c-1.9,1.9-4.3,2.8-7,2.8c-2.4,0-4.6-0.8-6.6-2.5C254.8,16.8,253.7,14.3,253.7,11.3z M256.6,11.4
		c0,2.1,0.7,3.8,2.1,5.1c1.4,1.3,3,2,4.8,2c2,0,3.6-0.7,5-2.1c1.4-1.4,2-3.1,2-5.1c0-2-0.7-3.7-2-5.1c-1.3-1.4-3-2.1-5-2.1
		c-2,0-3.6,0.7-5,2.1C257.3,7.7,256.6,9.4,256.6,11.4z"/>
	<path class="st6" d="M284.8,2v11.4c0,1.6,0.3,2.8,0.8,3.6c0.8,1.1,1.9,1.6,3.3,1.6c1.4,0,2.6-0.5,3.3-1.6c0.5-0.7,0.8-1.9,0.8-3.6
		V2h2.8v12.1c0,2-0.6,3.6-1.9,4.9c-1.4,1.4-3.1,2.1-5.1,2.1s-3.7-0.7-5.1-2.1c-1.2-1.3-1.9-2.9-1.9-4.9V2H284.8z"/>
	<path class="st6" d="M310.7,4.7v16.2h-2.8V4.7h-4.3V2H315v2.7H310.7z"/>
	<path class="st6" d="M325.4,9.4h8.1V2h2.8v18.8h-2.8V12h-8.1v8.8h-2.8V2h2.8V9.4z"/>
</g>
</svg>
