<?xml version="1.0" encoding="utf-8"?>
<!-- Generator: Adobe Illustrator 23.0.4, SVG Export Plug-In . SVG Version: 6.00 Build 0)  -->
<svg version="1.1" id="Layer_1" xmlns="http://www.w3.org/2000/svg" xmlns:xlink="http://www.w3.org/1999/xlink" x="0px" y="0px"
	 viewBox="0 0 25.8 31.4" style="enable-background:new 0 0 25.8 31.4;" xml:space="preserve">
<style type="text/css">
	.st0{fill:none;stroke:#BAB4AC;stroke-width:1.15;stroke-miterlimit:10;}
	.st1{fill:#FFFFFF;stroke:#BAB4AC;stroke-width:1.15;stroke-miterlimit:10;}
	.st2{fill:#EAEFF4;}
	.st3{opacity:0.2;fill:#4B384C;}
	.st4{opacity:0.35;fill:#4B384C;}
	.st5{opacity:0.45;fill:#4B384C;}
	.st6{fill:#12406A;}
	.st7{fill:#00416B;}
	.st8{fill:#FFFFFF;}
	.st9{fill:none;stroke:#58595B;stroke-miterlimit:10;}
	.st10{fill:#D5D5D7;}
	.st11{fill:#C0C1C3;}
	.st12{fill:#B6B7B8;}
	.st13{fill:#C7C8CA;}
	.st14{fill:#BEBFBF;}
	.st15{fill:#C1C3C4;}
	.st16{fill:#B3B4B5;}
	.st17{fill:#CECFD0;}
	.st18{fill:#A7A8AB;}
	.st19{fill:#A4A5A7;}
	.st20{clip-path:url(#SVGID_18_);}
	.st21{clip-path:url(#SVGID_20_);}
	.st22{clip-path:url(#SVGID_22_);}
	.st23{clip-path:url(#SVGID_24_);}
	.st24{clip-path:url(#SVGID_28_);}
	.st25{clip-path:url(#SVGID_30_);}
	.st26{clip-path:url(#SVGID_32_);}
	.st27{clip-path:url(#SVGID_34_);}
	.st28{clip-path:url(#SVGID_38_);}
	.st29{clip-path:url(#SVGID_42_);}
	.st30{clip-path:url(#SVGID_44_);}
	.st31{clip-path:url(#SVGID_46_);}
	.st32{clip-path:url(#SVGID_48_);}
	.st33{clip-path:url(#SVGID_52_);}
	.st34{fill:none;stroke:#58595B;stroke-width:2;stroke-miterlimit:10;}
	.st35{fill:none;stroke:#C4BEB6;stroke-width:3;stroke-miterlimit:10;}
	.st36{clip-path:url(#SVGID_56_);}
	.st37{clip-path:url(#SVGID_58_);}
	.st38{clip-path:url(#SVGID_60_);}
	.st39{clip-path:url(#SVGID_62_);}
	.st40{clip-path:url(#SVGID_66_);}
	.st41{clip-path:url(#SVGID_68_);}
	.st42{clip-path:url(#SVGID_70_);}
	.st43{clip-path:url(#SVGID_72_);}
	.st44{clip-path:url(#SVGID_76_);}
	.st45{clip-path:url(#SVGID_80_);}
	.st46{clip-path:url(#SVGID_82_);}
	.st47{clip-path:url(#SVGID_84_);}
	.st48{clip-path:url(#SVGID_86_);}
	.st49{clip-path:url(#SVGID_90_);}
	.st50{fill:#C4BEB6;}
	.st51{fill:#C3BEB6;}
	.st52{fill:none;stroke:#C3BEB6;stroke-miterlimit:10;}
	.st53{fill:none;stroke:#C3BEB6;stroke-width:3;stroke-miterlimit:10;}
	.st54{clip-path:url(#SVGID_108_);}
	.st55{clip-path:url(#SVGID_110_);}
	.st56{clip-path:url(#SVGID_112_);}
	.st57{clip-path:url(#SVGID_114_);}
	.st58{clip-path:url(#SVGID_118_);}
	.st59{clip-path:url(#SVGID_120_);}
	.st60{clip-path:url(#SVGID_122_);}
	.st61{clip-path:url(#SVGID_124_);}
	.st62{clip-path:url(#SVGID_128_);}
	.st63{clip-path:url(#SVGID_132_);}
	.st64{clip-path:url(#SVGID_134_);}
	.st65{clip-path:url(#SVGID_136_);}
	.st66{clip-path:url(#SVGID_138_);}
	.st67{clip-path:url(#SVGID_142_);}
	.st68{fill:none;stroke:#C4BEB6;stroke-miterlimit:10;}
	.st69{clip-path:url(#SVGID_150_);}
	.st70{clip-path:url(#SVGID_152_);}
	.st71{clip-path:url(#SVGID_154_);}
	.st72{clip-path:url(#SVGID_156_);}
	.st73{clip-path:url(#SVGID_160_);}
	.st74{clip-path:url(#SVGID_162_);}
	.st75{clip-path:url(#SVGID_164_);}
	.st76{clip-path:url(#SVGID_166_);}
	.st77{clip-path:url(#SVGID_170_);}
	.st78{clip-path:url(#SVGID_174_);}
	.st79{clip-path:url(#SVGID_176_);}
	.st80{clip-path:url(#SVGID_178_);}
	.st81{clip-path:url(#SVGID_180_);}
	.st82{clip-path:url(#SVGID_184_);}
	.st83{clip-path:url(#SVGID_188_);}
	.st84{clip-path:url(#SVGID_190_);}
	.st85{clip-path:url(#SVGID_192_);}
	.st86{clip-path:url(#SVGID_194_);}
	.st87{clip-path:url(#SVGID_198_);}
	.st88{clip-path:url(#SVGID_200_);}
	.st89{clip-path:url(#SVGID_202_);}
	.st90{clip-path:url(#SVGID_204_);}
	.st91{clip-path:url(#SVGID_208_);}
	.st92{clip-path:url(#SVGID_212_);}
	.st93{clip-path:url(#SVGID_214_);}
	.st94{clip-path:url(#SVGID_216_);}
	.st95{clip-path:url(#SVGID_218_);}
	.st96{clip-path:url(#SVGID_222_);}
	.st97{fill:none;stroke:#A9ABAD;stroke-miterlimit:10;}
	.st98{fill:#4B384C;}
	.st99{fill:#FED16D;}
	.st100{fill:#414042;}
	.st101{fill:#14472D;}
	.st102{fill:#F2EEE9;}
	.st103{fill:#222222;}
	.st104{fill:none;stroke:#C4BEB6;stroke-width:2;stroke-miterlimit:10;}
	.st105{fill:none;stroke:#00416B;stroke-width:3;stroke-miterlimit:10;}
	.st106{fill:none;stroke:#00416B;stroke-miterlimit:10;}
	.st107{clip-path:url(#SVGID_230_);}
	.st108{clip-path:url(#SVGID_232_);}
	.st109{clip-path:url(#SVGID_234_);}
	.st110{clip-path:url(#SVGID_236_);}
	.st111{clip-path:url(#SVGID_240_);}
	.st112{clip-path:url(#SVGID_242_);}
	.st113{clip-path:url(#SVGID_244_);}
	.st114{clip-path:url(#SVGID_246_);}
	.st115{clip-path:url(#SVGID_250_);}
	.st116{clip-path:url(#SVGID_254_);}
	.st117{clip-path:url(#SVGID_256_);}
	.st118{clip-path:url(#SVGID_258_);}
	.st119{clip-path:url(#SVGID_260_);}
	.st120{clip-path:url(#SVGID_264_);}
	.st121{clip-path:url(#SVGID_270_);}
	.st122{clip-path:url(#SVGID_272_);}
	.st123{clip-path:url(#SVGID_274_);}
	.st124{clip-path:url(#SVGID_276_);}
	.st125{clip-path:url(#SVGID_280_);}
	.st126{clip-path:url(#SVGID_282_);}
	.st127{clip-path:url(#SVGID_284_);}
	.st128{clip-path:url(#SVGID_286_);}
	.st129{clip-path:url(#SVGID_290_);}
	.st130{clip-path:url(#SVGID_294_);}
	.st131{clip-path:url(#SVGID_296_);}
	.st132{clip-path:url(#SVGID_298_);}
	.st133{clip-path:url(#SVGID_300_);}
	.st134{clip-path:url(#SVGID_304_);}
	.st135{clip-path:url(#SVGID_308_);}
	.st136{clip-path:url(#SVGID_310_);}
	.st137{clip-path:url(#SVGID_312_);}
	.st138{clip-path:url(#SVGID_314_);}
	.st139{clip-path:url(#SVGID_318_);}
	.st140{clip-path:url(#SVGID_320_);}
	.st141{clip-path:url(#SVGID_322_);}
	.st142{clip-path:url(#SVGID_324_);}
	.st143{clip-path:url(#SVGID_328_);}
	.st144{clip-path:url(#SVGID_332_);}
	.st145{clip-path:url(#SVGID_334_);}
	.st146{clip-path:url(#SVGID_336_);}
	.st147{clip-path:url(#SVGID_338_);}
	.st148{clip-path:url(#SVGID_342_);}
	.st149{fill:none;stroke:#FFFFFF;stroke-miterlimit:10;}
	.st150{fill:none;stroke:#FFFFFF;stroke-width:2;stroke-miterlimit:10;}
	.st151{opacity:0.98;fill:#FFFFFF;}
	.st152{fill:url(#);stroke:#BAB4AC;stroke-width:0.5;stroke-miterlimit:10;}
	.st153{fill:#FFFFFF;stroke:#BAB4AC;stroke-linejoin:round;}
	.st154{fill:none;stroke:#BAB4AC;stroke-linejoin:round;}
	.st155{fill:none;stroke:#BAB4AC;stroke-miterlimit:10;}
	.st156{fill:none;stroke:#BAB4AC;stroke-miterlimit:10;stroke-dasharray:1.999,1.999;}
	.st157{fill:none;stroke:#BAB4AC;stroke-miterlimit:10;stroke-dasharray:1.8973,1.8973;}
	.st158{fill:none;stroke:#BAB4AC;stroke-miterlimit:10;stroke-dasharray:1.893,1.893;}
	.st159{fill:#BAB4AC;}
	.st160{fill:#E20082;stroke:#BAB4AC;stroke-miterlimit:10;}
	.st161{fill:#231F20;stroke:#BAB4AC;stroke-miterlimit:10;}
	.st162{fill:#898B8E;}
	.st163{fill:#898B8E;stroke:#6E6F72;stroke-miterlimit:10;}
	.st164{fill:#231F20;}
	.st165{fill:none;stroke:#414042;stroke-miterlimit:10;}
	.st166{fill:url(#SVGID_345_);}
	.st167{fill:url(#SVGID_346_);}
</style>
<symbol  id="Half-Swing_Door" viewBox="-31.9 -23.3 63.8 46.6">
	<g>
		<g>
			<path class="st0" d="M31.3-19.8c0,16.5-6.6,28.7-17.4,39.5"/>
		</g>
		
			<rect x="-10.6" y="-29.8" transform="matrix(0.7071 0.7071 -0.7071 0.7071 -2.5163 6.0749)" class="st1" width="4" height="59.7"/>
	</g>
</symbol>
<path class="st50" d="M19.7,25.2c0.1,0,0.6-0.1,1.5-0.3c0.1-0.1,0.1-0.2,0.1-0.3c0.1,0,0.2,0.1,0.2,0.2c0,0,0.1-0.1,0.3-0.2
	c0.2-0.1,0.3-0.1,0.4-0.2c0.1-0.1,0.1-0.2,0.1-0.3c0.1,0,0.2,0,0.3-0.1c0.1-0.1,0.2-0.1,0.3-0.2c0.1-0.1,0.2-0.2,0.3-0.2
	c0.1-0.3,0.2-0.7,0.2-1.4c0-0.6,0.1-1.1,0.1-1.4c0-0.7-0.2-1.3-0.5-1.9c-0.3-0.6-0.6-1-0.9-1.3s-0.8-0.7-1.4-1.2
	c-0.7-0.5-1.1-0.8-1.3-1c-0.1,0-0.1,0-0.2-0.1l-0.1,0.1c-0.5-0.4-1.3-1.1-2.4-1.9c-1.1-0.8-1.8-1.4-2.3-1.9c-0.1,0-0.1,0-0.1,0.1
	c0,0.1-0.1,0.1-0.1,0.1c-0.1-0.4-0.4-0.7-0.8-1c-0.4-0.2-0.7-0.3-1-0.3c0-0.1,0-0.2,0.1-0.2c-0.7-0.6-1.2-1-1.5-1.1V8.9
	C10.6,8.8,10.2,8.5,9.7,8c-0.5-0.4-1-0.7-1.4-0.9c-0.1,0-0.1,0-0.1-0.1C8.3,7,8.3,6.9,8.3,6.9C7.9,6.6,7.1,6,5.8,4.9
	C4.5,3.9,3.5,3.2,2.7,2.8C2.6,2.7,2.5,2.7,2.4,2.9c-0.1,0.6-0.2,1.3-0.2,2c0.4,0.3,1.2,0.9,2.3,1.9c1.2,1,2.1,1.7,2.9,2.2
	c0.1,0,0.1,0.1,0.1,0.2c0,0.1,0,0.1,0.1,0.1c0.3,0.1,0.6,0.3,0.9,0.7c0.4,0.3,0.6,0.5,0.9,0.7c0.1,0.2,0.2,0.3,0.3,0.4
	c0.4,0.2,0.9,0.5,1.5,1c0.6,0.5,1,0.8,1.3,1c0.4,0.5,1,0.9,1.7,1.3l0.4,0.5c0.6,0.4,1.6,1.2,3,2.3c1.4,1.2,2.6,2,3.5,2.5l1.2,1.3
	c0,0.1-0.1,0.2-0.2,0.3c-0.1,0.1-0.2,0.2-0.3,0.2c-0.1,0.1-0.2,0.1-0.3,0.2c-0.3-0.1-0.6,0-0.8,0.4c-0.1,0-0.1,0-0.2-0.1
	c-0.1,0-0.1,0-0.2,0c-0.6,0.3-1.4,0.5-2.4,0.7c-1,0.2-2,0.4-3.2,0.5c-1.2,0.2-2,0.3-2.4,0.4c0,0,0,0.1-0.1,0.1c0,0,0,0.1,0,0.1
	c-0.1,0-0.1,0-0.2-0.1L12,23.5c-1.5,0.4-2.9,0.8-4.4,1.4c-0.2,0.2-0.4,0.7-0.5,1.3l0.3,0.4c0,0.4,0,0.6,0,0.7c0,0.1,0.1,0.3,0.3,0.6
	C7.9,28.1,8,28.4,8,28.6c0.1,0,0.1,0,0.2,0c0.1,0,0.1,0,0.3,0c0.1-0.1,0.3-0.2,0.4-0.3C9,28.2,9.1,28.1,9.1,28
	c0.1,0,0.6-0.2,1.6-0.6c0.1,0,0.3-0.1,0.5-0.3c0.2-0.1,0.4-0.2,0.5-0.3c0.1-0.1,0.4-0.1,0.7-0.1s0.6,0,0.7-0.1c0,0,0.1-0.1,0.1-0.2
	c0.1-0.1,0.1-0.2,0.1-0.2c0.1,0,0.4-0.1,0.7-0.1c0.4,0,0.7,0,0.8-0.1c0.3,0,0.6-0.1,1-0.2c0.4-0.1,0.7-0.2,1-0.2
	c0.3,0,0.6-0.1,0.9-0.1c0-0.1,0.1-0.2,0.2-0.2c0,0,0.1,0,0.1-0.1c0.4,0.3,0.8,0.2,1.4-0.4C19.6,25.1,19.7,25.1,19.7,25.2z M23,19.6
	c-0.1-0.4-0.1-0.6-0.1-0.6C23.1,19.3,23.1,19.5,23,19.6z M22.5,23.6c-0.2,0.1-0.4,0.3-0.5,0.5c-0.1,0-0.2,0-0.3,0
	c-0.1,0-0.2,0-0.2,0c0,0-0.1,0-0.2-0.1c0.2-0.2,0.3-0.4,0.3-0.7C22.1,23.4,22.4,23.4,22.5,23.6z M22.2,23.7c-0.1,0-0.1,0.1-0.1,0.2
	C22.1,23.8,22.2,23.8,22.2,23.7z M21.2,24.5c0,0-0.1,0-0.2,0c-0.1,0-0.1,0-0.1,0.1c-0.3-0.1-0.4,0-0.4,0.2c-0.2,0-0.3,0-0.4-0.2
	c-0.1-0.2-0.2-0.2-0.3-0.2c0,0,0,0.1,0,0.2c0,0.1,0,0.2,0,0.3c-0.1,0-0.5,0.1-1.1,0.3c-0.6,0.2-1,0.2-1.1,0.2
	c-0.1,0-0.5-0.1-1.1-0.1v-0.4c0.6,0.2,0.9,0.2,1-0.2c0.1,0,0.1,0,0.1,0.1c0,0.1,0.1,0.2,0.2,0.1c0-0.2,0.1-0.2,0.3-0.1
	c0.2,0.1,0.3,0.1,0.4,0c0-0.1,0-0.2-0.1-0.2c-0.1,0-0.1-0.1-0.1-0.2c0.1,0,0.2,0,0.3,0.1c0.1,0,0.1,0,0.2,0L19,24.4c0,0,0-0.1,0-0.1
	c0.2-0.2,0.4-0.2,0.4,0c0.1-0.2,0.2-0.2,0.4-0.2c0.2,0,0.3,0,0.4-0.2c0.1,0.1,0.2,0.2,0.3,0.2c0-0.2,0.1-0.4,0.4-0.5
	c0.3-0.1,0.5-0.1,0.5-0.2c0,0.1,0,0.3-0.1,0.5C21.3,24.3,21.2,24.4,21.2,24.5z M20.7,24.2h-0.2v0.1c0,0.1-0.1,0.1-0.1,0.2h0.3
	C20.7,24.4,20.7,24.3,20.7,24.2z M16.5,25.2c0,0.2-0.1,0.3-0.3,0.3c-0.1-0.2-0.1-0.4-0.1-0.4C16.2,25.1,16.3,25.2,16.5,25.2z
	 M16.1,25.4c-0.1,0-0.1,0-0.2,0c-0.1,0-0.1,0.1-0.2,0.1c0-0.2,0-0.2,0.1-0.2C16,25.2,16.1,25.3,16.1,25.4z M15.3,25.5
	c0-0.1,0-0.2,0.1-0.2c0.1-0.1,0.1-0.1,0.1,0c0,0-0.1,0-0.1,0.1C15.4,25.5,15.4,25.5,15.3,25.5z"/>
</svg>
